<?xml version="1.0" encoding="utf-8"?>

<!DOCTYPE svg PUBLIC "-//W3C//DTD SVG 1.1//EN" "http://www.w3.org/Graphics/SVG/1.1/DTD/svg11.dtd">
<svg version="1.1" id="Layer_1" xmlns="http://www.w3.org/2000/svg" xmlns:xlink="http://www.w3.org/1999/xlink" x="0px" y="0px"
	 viewBox="169.8983 180.5981 1701.1017 1714.2031" enable-background="new 169.8983 180.5981 1701.1017 1714.2031"
	 xml:space="preserve">
<path d="M1823.9336,973.4756c-3.4526,0.5303-6.3506,0.6476-8.9255,0.3821c-0.1963-0.2861-0.3674-0.66-0.5452-1.0583
	c-0.4365-0.9786-0.9824-2.182-2.2549-2.2402c-0.2251-0.3651-0.4397-0.7408-0.6582-1.149c-0.5886-1.0993-1.2168-2.2132-2.2314-2.9731
	l0.5371-1.9731l-1.3105,0.3256c-0.2876-0.3158-0.6716-0.7374-0.9482-1.0461c-0.2424-2.5768-1.4502-4.8593-2.626-7.0665
	c-0.6436-1.209-1.3096-2.4585-1.7832-3.7134l-0.1396-0.3706l-0.7739,0.1017l0.1216-1.6735l-0.0352-0.0991
	c-2.4541-6.8833-4.1182-14.1416-5.7275-21.1616c-1.03-4.4929-2.0955-9.1372-3.3564-13.6317
	c0.2124-2.3481,0.4756-4.1525,0.8516-5.8292l0.0225-0.104l-0.001-0.0057c1.6929-7.1532-1.2983-13.2723-4.1943-19.1901
	c-1.6396-3.3477-3.334-6.8096-4.1475-10.4097l-0.0273-0.1235l-0.084-0.0952c-0.4141-0.4736-0.5898-1.2563-0.7607-2.0137
	c-0.2456-1.0901-0.5313-2.3038-1.6116-2.7574l-0.0691-0.3358c-0.4902-2.4022-1.0515-5.1163-2.7793-6.8474
	c-0.166-0.2759-0.2751-0.8079-0.3799-1.325c-0.2114-1.042-0.481-2.3168-1.5254-2.4117
	c-3.4541-9.3307-9.4646-17.6109-14.3379-23.7992l-0.2168-0.2764l-0.334,0.1113c-1.0518,0.3506-1.8896,1.1636-2.4893,2.4155
	c-1.2412,2.5941-1.166,6.4831-0.3916,8.6627c0.0327,0.7006-0.0916,1.632-0.2246,2.6201c-0.3113,2.3002-0.6362,4.8671,0.9001,5.858
	c-0.0594,3.0976-0.0751,5.9283,0.217,8.871c-0.672,1.4565-0.2327,3.3749,0.2031,5.2363c0.3525,1.5073,0.7178,3.0654,0.2246,3.7368
	c-0.1082,0.1464-0.2695,0.2527-0.4766,0.3279c-0.0552-1.6125-1.4155-2.5427-2.5371-3.3069
	c-0.1926-0.1313-0.3876-0.2702-0.5845-0.4119c-0.217-2.2571-2.1851-4.1878-4.1648-4.9136c-0.1371-0.775-0.6063-1.6709-1.8486-2.1693
	c-0.2793-2.2831-2.3256-4.231-4.2813-4.8873c-0.5896-2.007-2.6628-3.895-4.7551-4.3156c-1.6577-2.2977-3.8224-4.0015-6.1398-4.8389
	c-0.369-1.1599-1.7657-1.7677-2.8823-1.9456c-0.0707-1.0098-1.0861-1.4962-1.7987-1.8317c-0.376-0.1772-0.7646-0.3604-0.9668-0.5645
	l-0.1289-0.0947c-3.3828-1.7212-6.415-4.1172-9.3486-6.4346c-2.8054-2.2166-5.7086-4.5049-8.9282-6.2211
	c-2.0157-2.3666-5.0686-4.5865-8.0175-5.8291c-2.9384-2.8904-6.6998-5.0894-10.3405-7.215
	c-2.5938-1.5142-5.2754-3.0796-7.6914-4.9229c-1.1191-0.5508-2.1729-1.3311-3.1924-2.0859
	c-1.7573-1.3006-3.5757-2.6364-5.8488-2.9329c-0.2325-0.2-0.4659-0.4188-0.7059-0.6497c-0.8629-0.8304-1.8391-1.7561-3.1084-1.8455
	c-0.4835-0.3062-0.9725-0.6255-1.4717-0.9514c-3.1746-2.0775-6.7961-4.4371-10.6292-4.2899l0.0461-0.7413l-0.3164-0.1416
	c-1.3018-0.5811-2.6074-1.2803-3.8691-1.9561c-2.7828-1.4897-5.6598-3.0232-8.8275-3.5117
	c-1.2419-1.2286-2.6532-1.9088-3.9928-1.9088c-0.004,0-0.0077,0.0003-0.0117,0.0003c-0.4741-1.8081-2.67-2.5113-4.6455-3.1253
	c-0.9116-0.2829-1.7711-0.552-2.3586-0.8948c-1.8352-1.8711-4.5386-2.8158-6.9304-3.6472c-0.347-0.1209-0.6871-0.2397-1.0204-0.3591
	c-2.1605-2.0558-5.4344-3.6821-9.0211-4.4745l-1.7437-0.786c-13.1079-5.9185-26.6617-12.0344-41.239-13.6379l-0.9592-0.7869
	l-0.1326,0.0032c-1.3181-0.2565-2.6362-0.5189-3.9553-0.7815c-8.3898-1.6703-17.0608-3.387-25.7966-3.5017l-0.0198-0.9788
	l-0.4727-0.0161c-2.002-0.0698-4.127-0.1025-6.6865-0.1025c-1.9063,0-3.8096,0.0181-5.71,0.0361
	c-1.8887,0.0181-3.7734,0.0356-5.6514,0.0356h-0.5947l0.1033,0.5908c-0.2732-0.1025-0.5613-0.2112-0.823-0.3101l-0.2092-0.0787
	l0.1506-1.1591l-0.5566-0.0127c-5.3408-0.1191-10.7373-0.1289-16.04-0.0303l-0.4951,0.0093l0.0095,0.9355
	c-5.0894-0.1096-10.1741,0.6833-15.0925,1.4604c-1.751,0.2769-3.501,0.5532-5.249,0.7896l-0.1777,0.0244l-0.8552,0.9868
	c-20.124,1.9928-40.0936,7.6536-59.4075,13.1299l-2.9016,0.8224c3.9399-4.6019,7.699-9.4435,11.3342-14.1432
	c3.4785-4.498,7.0762-9.1494,10.8447-13.5894c1.251-1.7954,2.7744-3.4702,4.248-5.0903c2.318-2.5465,4.7083-5.1814,6.1841-8.4377
	c4.379-4.061,8.1096-8.8732,11.7173-13.5291c2.884-3.7222,5.8679-7.5664,9.1606-10.9999c1.7185-0.1971,3.4956-0.2341,5.2183-0.2667
	c2.4103-0.0458,4.9004-0.103,7.406-0.6125c0.9572,0.4036,2.5391,0.8499,4.0598,0.8499c1.8838,0,2.7605-0.6918,3.1683-1.3806
	c0.8624-0.0017,1.7465,0.0864,2.608,0.1868c1.3661,0.1592,2.864,0.2664,4.0708,0.0964c0.623,0.8073,1.8077,0.9143,2.689,0.9143
	c0.7676,0,1.6318-0.0884,2.4678-0.1743c1.4851-0.1521,3.0151-0.2537,3.8019,0.0015c0.7682,0.5745,1.7806,0.8745,3.0272,0.8745
	c2.4646,0,5.5692-1.2,7.4507-2.8665c3.2611-1.1914,6.6235-2.5704,9.0281-5.0002l2.24-0.0996l-0.2223-0.7714
	c1.0414-0.4321,2.016-0.9852,2.9576-1.5299c1.8496-1.0688,3.5967-2.0781,5.7139-2.0781c0.5928,0,1.1863,0.0935,1.7971,0.2523
	l0.0134,0.0685l0.3315,0.014l0.7329,0.2189l-0.0369-0.1866c0.6331,0.0314,1.4185,0.0736,1.9758,0.1041l0.0093,0.0176l0.2925-0.001
	l0.8628,0.0483l-0.027-0.0508c1.295-0.0033,2.9524-0.0054,4.6168-0.0073c2.0391-0.0024,4.0791-0.0049,5.4385-0.0098l0.498-0.002
	v-0.8728c0.2727,0.0426,0.5336,0.071,0.7686,0.071c1.2144,0,1.7975-0.5549,2.0803-1.136c1.3411,0.0581,2.6128-0.3588,3.6316-1.1732
	c0.1584,0.0099,0.3169,0.0211,0.4736,0.0211c1.6533,0,3.2061-0.5337,4.707-1.0503c1.5156-0.521,2.9473-1.0132,4.4873-1.0132
	l0.7207,0.0215l0.0938-0.908c3.0725-0.1224,6.0444-0.9778,8.9219-1.8152c1.7617-0.5127,3.584-1.043,5.3994-1.3921l0.0042-0.0007
	c6.6382-1.0037,13.286-2.5935,19.7136-4.1316c5.7148-1.3672,11.623-2.7808,17.501-3.7759l0.3867-0.0654l0.0433-0.7961
	c0.6537-0.061,1.3419-0.1138,2.0651-0.1658c3.946-0.2837,8.3942-0.6167,10.7444-2.8582l1.5427-0.2014
	c5.0852-0.6567,10.8418-1.4045,15.3699-3.6935c7.7926-1.1515,15.5286-3.3043,23.011-5.3871
	c6.4453-1.7944,13.1094-3.6499,19.7725-4.8535l0.3213-0.0581l0.2158-0.9004c0.6127-0.1461,1.366-0.2156,2.167-0.2837
	c1.9067-0.1614,3.8594-0.3433,4.6488-1.6566c7.0366-0.916,12.9213-2.2838,17.4943-4.0687c0.311,0.0337,0.6245,0.0583,0.936,0.0583
	c3.2559,0,6.0117-1.8164,8.6777-3.5732c0.9004-0.5933,1.751-1.1538,2.6914-1.6968c0.8145-0.6841,1.8818-1.1528,3.0127-1.6489
	c1.7725-0.7781,3.5903-1.5933,4.4673-3.3224c2.6323-0.184,6.5726-2.1886,6.9741-5.0726l0.0732-0.5239l-0.5273-0.0435
	c-0.6484-0.0527-1.3203-0.0796-1.998-0.0796c-3.6133,0-7.1719,0.7554-10.6133,1.4858c-2.2314,0.4741-4.5381,0.9639-6.8193,1.2358
	l-0.1689,0.0518c-0.9277,0.4771-2.3076,0.5557-3.6416,0.6323c-1.9946,0.1139-4.0425,0.2471-5.1538,1.6311
	c-0.363,0.0308-0.8552,0.0691-1.2544,0.098l-0.0479-0.1051l-0.3684,0.1343l-0.6501,0.0439l0.0701,0.1539
	c-5.4213,1.9406-11.1035,3.3861-16.6091,4.7758c-4.8816,1.2321-9.9264,2.5074-14.7776,4.1328
	c-3.0245-0.1565-5.7556-1.7883-8.5741-5.1193l-0.0135-0.4315l-0.0642,0.0154c-0.0408-0.2771-0.083-0.5492-0.1213-0.8357
	c-0.2574-1.908-0.5547-4.0579-1.7615-5.5383c-0.1785-2.0176-0.418-4.0459-0.6506-6.0085c-0.2256-1.9092-0.46-3.8833-0.6348-5.8296
	l-0.0498-0.5537l-0.2427,0.0481c0.5115-1.0951,0.176-2.3196-0.1392-3.4373c-0.1982-0.7036-0.3857-1.3687-0.3799-2.0415
	c-0.1895-1.9077-0.3896-3.814-0.5898-5.7192c-0.6692-6.3707-1.3606-12.9575-1.6324-19.4558
	c0.4086-1.1926,0.4365-2.0095,0.069-2.5466c-0.1218-0.1785-0.3374-0.3783-0.6833-0.4904c0.187-3.4691-0.241-6.9125-0.6614-10.2469
	c-0.3018-2.3887-0.6133-4.8584-0.6895-7.2974c0.0081-0.0557,0.0054-0.115,0.0125-0.1711c0.0349-0.2791,0.0544-0.5669,0.0624-0.8616
	c0.0037-0.1449,0.0028-0.2902-0.0004-0.437c-0.0056-0.2777-0.0239-0.5627-0.0552-0.855c-0.0071-0.0653-0.0039-0.1283-0.0125-0.1938
	l-0.0045,0.0002c-0.0021-0.0166-0.0021-0.032-0.0043-0.0486c-0.9502-4.1084-0.873-8.4761-0.7988-12.6997
	c0.0117-0.6523,0.0234-1.3027,0.0313-1.9517l0.0059-0.501l-0.9805-0.0098c0.0452-2.5284,0.0321-5.085,0.0156-7.564
	c-0.0134-1.9418-0.0255-3.8816-0.0105-5.8162c0.2677-0.4969,0.7102-1.3303,0.9484-1.7871c1.9391-2.2256,2.1857-5.7,2.4186-9.0657
	c0.106-1.5317,0.2065-2.9786,0.4602-4.2686c0.2097-0.7524,0.459-1.5404,0.7166-2.3516c1.3516-4.2705,2.8838-9.1104,0.1377-12.8101
	l-0.1152-0.1558l-0.1895-0.0371c-0.3994-0.0781-0.8018-0.1177-1.1953-0.1177c-4.252,0-7.209,4.5239-9.3672,7.8271
	c-0.2839,0.4343-0.5537,0.8457-0.8134,1.2285c-1.0494,0.9441-2.1741,1.8716-3.2628,2.7676
	c-1.9429,1.5996-3.9485,3.2552-5.6432,5.1011c-4.4305,1.8811-8.4327,5.4006-11.0302,8.0525
	c-2.6265,1.79-5.5364,3.3835-8.3521,4.9246c-4.7534,2.6021-9.667,5.2944-13.5168,9.0695
	c-7.2743,3.2308-13.1907,8.2435-16.9187,11.9379c-1.5306,0.1113-2.5564,1.068-3.5449,2.0034
	c-0.4824,0.457-0.9375,0.8882-1.4961,1.2554c-1.7373,1.4785-3.623,2.873-5.4482,4.2222c-3.7682,2.7854-7.6567,5.6692-10.5879,9.5398
	c-3.2845,0.5197-5.4434,3.8665-7.0273,6.3402c-0.2488,0.1996-0.6469,0.5134-0.8988,0.7086
	c-2.4425,0.6021-5.2299,2.5845-6.0656,5.3079c-5.6494,3.8013-11.1097,8.8164-15.0403,13.8103
	c-2.5564,0.0424-4.1262,2.191-5.5315,4.1125c-0.5168,0.7073-1.0067,1.3718-1.5122,1.903c-0.8306,0.4388-1.5001,1.0741-1.9675,1.8473
	c-2.8071,0.6506-4.6362,2.9521-6.0498,5.1759c-0.8345,0.4222-1.5018,1.0513-1.9535,1.8268
	c-2.464,0.7225-5.1178,2.6963-5.8038,5.2473c-3.0688-0.1162-5.0352,3.0729-6.2067,5.0229c-0.2301,0.197-0.5719,0.5026-0.821,0.7292
	c-2.6565,0.0515-4.3636,2.6577-5.184,4.3206c-0.2118,0.1157-0.585,0.197-0.9272,0.2683c-0.6885,0.1426-1.4004,0.2896-1.7393,0.8252
	c-0.1082,0.1709-0.1449,0.3723-0.1466,0.5925c-4.2296,3.2496-8.4789,6.6226-12.5907,9.8884
	c-11.5508,9.1733-23.4941,18.6597-36.3135,26.4141l-0.2002,0.1211l-0.1165,0.78c-0.5366,0.3186-1.1528,0.6277-1.8142,0.9514
	c-2.0693,1.0125-4.3792,2.1647-4.9203,4.2168c-0.5807,0.167-1.2438,0.3281-1.9586,0.4966c-2.7566,0.6497-5.837,1.3956-6.9714,3.2338
	c-2.2002-0.1079-4.2263,0.6838-6.1799,1.4576c-0.5674,0.2242-1.132,0.4453-1.6974,0.6453c-2.7806-0.1768-5.84-0.2595-9.6171-0.2595
	c-1.8594,0-3.7148,0.0186-5.5654,0.0371l-1.8801,0.0178c-0.6196-0.0234-1.2384-0.0369-1.8562-0.0369
	c-1.4482,0-2.7715,0.0779-4.049,0.2195l-0.0028-0.0056l-0.1106,0.0156c-0.0791,0.009-0.1633,0.012-0.2419,0.0215l-0.1602,0.0194
	c-0.3439-0.8413-1.0151-1.3002-1.9297-1.3002c-0.4404,0-0.9484,0.1107-1.4331,0.2976c-6.3962-1.0029-13.3262,0.6182-21.3472,5.0413
	l-0.292,0.1606l0.0778,0.7161c-2.4901,1.2251-5.7825,3.2327-8.1801,6.1039c-0.8094-0.2014-1.7126,0.0009-2.2288,0.5658
	c-0.2452,0.2692-0.3906,0.592-0.4451,0.9268c-1.3718,0.1204-2.4834,0.8357-3.1797,2.0498c-3.4829,1.2126-6.0192,3.5912-8.468,5.8994
	c-1.4619,1.377-2.9717,2.8003-4.665,3.9512c-4.4175,0.7885-8.1738,3.3005-10.6541,5.3763c-0.5869,0.0812-1.1819,0.16-1.7874,0.2394
	c-4.8977,0.6433-10.4396,1.3777-14.4199,4.3282c-4.6306,0.8202-8.9006,2.9281-13.0303,4.9706
	c-2.5176,1.2456-5.1211,2.5332-7.8252,3.5298c-5.1836,2.8057-10.6924,5.2476-16.0195,7.6094
	c-6.3052,2.7952-12.8228,5.6865-18.9233,9.2527c-4.6287,0.9294-9.8977,3.1968-14.123,6.0774
	c-9.7289,3.5793-17.3403,6.7209-23.9431,9.8823c-3.7981,0.7141-6.584,1.8416-8.3011,3.3476
	c-2.505-0.1471-5.9111,1.301-7.5809,2.7203c-1.4186-0.098-2.7225,0.3617-3.9683,0.8086c-0.332,0.1196-0.6631,0.2388-1.0205,0.355
	c-13.2148,5.0542-26.8828,9.3765-38.9424,13.1899l-0.2881,0.0908l-0.1188,0.66c-0.4911-0.1807-1.0519-0.2841-1.6478-0.2841
	c-1.7156,0-3.4856,0.79-3.9111,2.2944c-0.4319-0.055-0.8682-0.0923-1.3076-0.0923c-2.7764,0-5.3623,1.0942-7.8623,2.1523
	c-2.2051,0.9331-4.4863,1.8984-6.8506,2.0767l-0.5664,0.0425l0.1875,0.9189c-0.069-0.001-0.1356-0.0059-0.2051-0.0059
	c-2.5305,0-4.8728,0.6306-6.5525,1.7837c-0.3705,0.0744-0.7546,0.1477-1.1526,0.2236c-2.8462,0.5406-6.0498,1.1609-7.886,2.8487
	c-2.6841,0.0138-5.2966,0.6371-7.824,1.2421c-2.793,0.6689-5.6777,1.353-8.6055,1.1958l-0.0908-0.0054l-0.0869,0.0273
	c-1.3789,0.4331-2.9023,0.6338-4.375,0.8276c-2.303,0.303-4.679,0.6214-6.7279,1.8082c-0.2589-0.0046-0.5192-0.0079-0.7828-0.0079
	c-6.11,0-10.6769,1.2906-13.5942,3.8236c-1.24,0.0763-2.7014,0.6658-3.1567,2.0452c-2.0854,0.5328-3.8655,2.2052-5.3057,3.5721
	l-0.437,0.4106c-4.3796,2.4578-8.3916,5.1386-11.9807,8.0076c-1.9341-0.0002-3.8679-0.0048-5.801-0.009
	c-1.9863-0.0049-3.9717-0.0093-5.957-0.0093c-4.4453,0-7.8579,0.024-11.0651,0.0785c-3.0111-0.1086-6.3535-0.1257-9.5077-0.067
	l-0.019-0.9207l-0.4775-0.0122c-2.4121-0.0601-5.0635-0.0884-8.3418-0.0884c-1.6445,0-3.2891,0.0068-4.9336,0.0132
	c-3.4482,0.0142-6.8943,0.0251-10.3345-0.0223l-0.0557-0.1739c2.0569-0.4611,3.9502-1.8754,5.0862-3.8253
	c3.4194-0.8752,6.8212-3.5645,8.6808-5.834c1.9253,0.1893,2.9126-1.4462,3.2697-2.1363c3.2104-1.1622,8.8396-3.2695,10.889-7.2813
	c0.2556,0.0639,0.5272,0.1071,0.8297,0.1071c1.3135,0,2.7627-0.6162,3.5225-1.498c0.365-0.4236,0.5696-0.8952,0.6061-1.3843
	c2.8309-0.5348,5.241-2.2566,7.5707-3.9394c1.6797-1.2129,3.416-2.4678,5.2676-3.2241l0.3516-0.1436l-0.0983-0.8376
	c3.3295-0.4583,6.9545-2.3518,9.0449-4.7592l0.4059-0.1185c1.7957-0.519,3.8022-1.1207,4.7131-3.0262
	c0.1025,0.0084,0.1962,0.0292,0.3044,0.0292c1.7131,0,4.075-1.0742,4.4683-2.8513c1.1165-0.1086,2.3879-0.4052,2.8804-1.1712
	c0.1086-0.1694,0.2007-0.4189,0.1963-0.7286c0.0596-0.017,0.1155-0.0339,0.1758-0.0512c1.371-0.391,3.0396-0.8812,3.9275-2.2407
	c0.1216,0.0122,0.2344,0.0361,0.3645,0.0361c1.7548,0,4.1781-1.1182,4.4824-2.9626c0.604-0.2294,1.4828-0.5652,2.0035-0.7678
	c2.5004-0.1153,4.5519-1.4376,6.5355-2.7222c0.8311-0.5386,1.6162-1.0474,2.4668-1.4922
	c5.1514-3.1843,12.3837-8.2231,15.9182-15.2585c12.7511-7.1311,24.5012-11.1074,35.9135-12.1538l0.0043,0.0022l0.1431-0.0176
	l1.7065-0.1528l-0.1459-0.0753c0.6212-0.0917,1.2428-0.1752,1.8646-0.2728c0.8352-0.1315,1.6738-0.2627,2.519-0.3806l0.0161,0.0027
	l0.623-0.1328c3.3684-0.7151,7.5437-1.6105,9.5245-4.5571c0.4308-0.3239,0.845-0.6758,1.2567-1.0298
	c1.2861-1.1064,2.501-2.1514,4.2148-2.1514l0.7617,0.0215l-0.189-0.955c0.4753,0.017,0.965,0.0297,1.478,0.0297
	c5.2297,0,8.7582-1.0375,10.5336-3.0634c0.5533,0.1466,1.1212,0.2357,1.7369,0.2352c1.4414,0,2.8652-0.4019,4.2422-0.7905
	c1.1426-0.3218,2.2207-0.6265,3.3594-0.7256c2.0898-0.4404,4.1777-0.9063,6.2676-1.3721
	c5.5488-1.2383,11.2871-2.5181,17.0049-3.2817l0.4609-0.0615l-0.0481-0.7974c4.5765-0.2725,10.8357-1.0538,15.8132-3.2006
	c0.1581,0.026,0.3208,0.0537,0.5083,0.0868c0.8789,0.1548,2.082,0.3667,3.1758,0.3667c1.63,0,2.6509-0.4795,3.0447-1.4258
	c1.6395,0.1309,3.3284,0.2041,5.0364,0.2041c2.616,0,5.3743-0.1567,8.198-0.4635l0.05,0.0099l0.1191-0.0361
	c2.999-0.9082,5.7275-2.7197,8.3652-4.4717c2.3535-1.563,4.7881-3.1797,7.4287-4.1577c5.1201-2.2124,10.2461-4.646,15.2041-6.999
	c8.3105-3.9448,16.9053-8.0244,25.6953-11.1689l0.332-0.1187v-0.6022l0.2715-0.0839c1.9623-0.5986,4.3774-1.3481,5.6404-3.0691
	c3.1968-0.5151,6.076-1.9878,8.8596-3.4187c0.9902-0.5088,2.0137-1.0347,3.04-1.5103c3.458-1.707,6.9014-3.4429,10.3457-5.1787
	c6.667-3.3604,13.5615-6.8354,20.4541-10.0356l0.2383-0.1108l0.1182-0.7681c0.2357-0.0706,0.4703-0.1409,0.7295-0.2153
	c2.2905-0.6584,5.3931-1.5562,6.3162-3.7992c6.7756-2.7924,13.3354-6.3258,19.6809-9.7462
	c4.5549-2.4559,9.2659-4.9944,14.0079-7.2322c2.6273-0.8142,4.3944-2.1636,5.2633-4.002c2.5005-1.6099,4.1335-3.989,4.8672-7.0718
	c0.8-0.095,1.6752-0.5563,2.0645-1.9543c2.7056-1.5082,4.0922-3.1672,4.2371-5.0582l0.9578-0.8627
	c0.188-0.1487,0.3838-0.2955,0.5818-0.4438c0.9639-0.7231,2.04-1.5425,2.5339-2.7797c1.2646-0.5658,2.1379-3.2924,2.01-4.882
	c-0.1235-1.5425-1.1008-2.26-2.5636-1.8008c-2.6656-0.2972-5.0416,0.771-7.327,1.8066c-1.1875,0.5376-2.416,1.0938-3.6504,1.4346
	l-0.2637,0.0728l-0.2615,0.845c-1.7705,0.4956-3.5125,1.1477-5.1995,1.7844c-2.3398,0.8828-4.7588,1.7959-7.2461,2.2686
	l-0.2891,0.0552l-0.2568,0.7794c-0.5863,0.2241-1.2227,0.4323-1.9004,0.6488c-2.2351,0.7126-4.7415,1.5283-6.0417,3.3606
	l-0.4136-0.0112l-0.0261-0.155l-0.4661,0.1414l-0.5271-0.0144l0.0265,0.1565c-6.2289,1.8407-13.1859,2.7424-21.2628,2.7424
	c-1.5513,0-3.1902-0.0361-4.926-0.0999c-0.5084-0.6692-1.3979-1.0271-2.699-1.0271c-1.376,0-2.7251,0.3746-3.2532,0.54
	c-0.8269-0.1372-1.6667-0.3402-2.4802-0.5405c-1.4727-0.3623-2.9951-0.7373-4.5557-0.7373c-0.459,0-0.9092,0.0332-1.3389,0.0977
	l-0.0596,0.009l-2.1924-0.2019l0.1523-0.8862l-0.5547-0.0352c-1.1543-0.0732-2.333-0.2788-3.4727-0.4775
	c-1.459-0.2544-2.9678-0.5176-4.4785-0.5176c-0.8376,0-1.604,0.0874-2.3445,0.25l-0.4885-0.1736
	c-1.1785-2.0825-4.4683-2.386-7.4004-2.6394c-1.3984-0.121-2.7174-0.2358-3.7021-0.5193c-0.9028-0.3516-1.8195-0.7217-2.749-1.0974
	c-3.8831-1.5706-7.8967-3.189-12.0967-3.9067c-2.2003-1.677-6.3958-4.4155-10.8691-4.8877l-0.1895-0.7324l-0.1846-0.1045
	c-1.0586-0.6001-2.1172-1.2383-3.1797-1.8799c-3.106-1.8728-6.3159-3.7991-9.7283-4.8855
	c-0.1356-2.0834-2.5508-3.0076-4.6985-3.8279c-1.2615-0.4817-2.4503-0.9374-3.0627-1.5446
	c-0.2197-0.2668-0.4294-0.5553-0.6404-0.8466c-0.8417-1.1626-1.797-2.4692-3.5166-2.5228
	c-3.3314-3.3307-7.0183-6.4569-10.5889-9.4801c-3.1194-2.6411-6.3442-5.3723-9.2722-8.197c-2.4847-3.4858-5.4351-6.6652-8.2893-9.74
	c-1.6221-1.7473-3.2996-3.5537-4.8525-5.3782c-2.2839-3.1714-4.7618-6.4712-7.7158-9.0062
	c-0.912-2.5115-2.6963-4.5339-4.4287-6.4877c-1.3994-1.5801-2.8477-3.2139-3.7861-5.0737l-0.0645-0.0981
	c-1.4053-1.6587-2.6133-3.6035-3.7822-5.4844c-1.7319-2.7874-3.5264-5.6643-6.0264-7.7549
	c-0.8108-2.5111-3.0439-8.2615-7.1165-10.8838l-0.8054-2.002l-0.0264-0.0194c-3.1455-5.8607-6.5916-11.7155-9.9268-17.379
	c-5.0117-8.5117-10.1943-17.3135-14.4863-26.3574l-0.0762-0.1592l-0.7333-0.355l0.1356-0.4927l-0.1074-0.1831
	c-1.4736-2.4961-2.8223-5.1958-4.126-7.8066c-1.7356-3.4741-3.5304-7.0643-5.6365-10.205
	c-1.9371-5.1967-4.6378-10.2596-7.2522-15.1559c-0.5435-1.0183-1.082-2.032-1.6146-3.0446l0.0238-0.0087l-0.2994-0.5112
	l-0.1957-0.373l-0.0032,0.0012c-0.3518-0.6746-0.6621-1.4596-0.9841-2.2908c-0.6694-1.7253-1.3672-3.4945-2.5703-4.3757
	c-0.259-1.9344-1.325-3.528-2.3652-5.0676l-0.1443-0.2144c-3.2688-7.8433-6.9741-16.7198-11.8431-24.1844
	c-0.9066-5.2684-3.953-10.3348-6.6483-14.8077l-0.3625-0.5885c-1.1379-4.0519-3.012-7.9281-4.825-11.6776
	c-1.4697-3.0391-2.9893-6.1812-4.1016-9.3887l-0.1582-0.4546l-0.4414,0.134c-0.2512-1.8687-1.0906-3.5377-1.9102-5.155
	c-0.4521-0.8916-0.9189-1.8135-1.2744-2.7622c-2.6904-6.1201-5.3594-12.25-8.0283-18.3789
	c-5.6396-12.9492-11.4697-26.3389-17.415-39.417l-0.0771-0.1704l-0.9736-0.4435c-1.2727-4.5209-3.3931-8.9706-5.4492-13.2758
	c-1.1187-2.3406-2.2723-4.7592-3.2637-7.1389c0.1746-0.8557-0.033-1.9814-0.5723-2.8972c-0.3411-0.5795-0.7717-0.9789-1.2334-1.176
	c-2.335-7.7328-5.0166-15.4939-7.6123-23.0017c-0.9072-2.6265-1.8154-5.252-2.71-7.8804l-0.1064-0.3115l-0.679-0.0344
	c0.1792-1.5596-0.4762-2.9116-1.1189-4.2219c-0.4072-0.8286-0.791-1.6113-0.9756-2.46c-1.3418-5.0308-4.167-9.9253-8.1699-14.1548
	l-0.2529-0.1768l-0.2471,0.0269c-0.2471,0-0.6396-0.0483-1.0713-0.0991c-0.5654-0.0659-1.2051-0.1411-1.71-0.1411
	c-0.3096,0-1.0332,0-1.2461,0.5288c-0.1229,0.3053,0.0023,0.5894,0.1687,0.811c-0.2734,0.5564-0.6545,1.3483-0.865,1.7871
	l-0.0732,0.1509l0.0176,0.0867c-0.7194,5.2007-0.5803,10.5304-0.4434,15.6863c0.083,3.1299,0.168,6.3662,0.0586,9.5259
	l-0.0176,0.5225h0.0071c-0.1515,6.6625-0.0715,11.8611,0.2615,16.7686l0.0037,0.0007l-0.0681,0.413
	c-1.4884,1.4403-1.2697,3.4343-1.0625,5.205c0.0195,0.1666,0.0356,0.3225,0.0531,0.4825l-0.7279,0.3807l-0.0596,0.2051
	c-5.8936,20.3569-22.9053,33.4204-39.3574,46.0537c-2.8916,2.2202-5.8818,4.5166-8.7139,6.7852l-0.2178,0.1738l0.0879,0.7009
	c-0.4581,0.2935-0.9414,0.5769-1.4561,0.8718c-1.8798,1.0776-3.8096,2.2001-4.6677,4.2029
	c-2.0583,0.5107-3.5538,1.9727-4.9954,3.3982c-0.9375,0.9277-1.8242,1.8037-2.9229,2.481
	c-2.6465,2.3794-5.5664,4.7168-8.3896,6.9771c-4.345,3.4783-8.8374,7.0753-12.4153,10.8955
	c-5.592,3.9559-10.7192,8.636-15.6785,13.1631c-2.9976,2.7368-6.0972,5.5664-9.2993,8.2358c-2.042,2.082-4.3364,4.0728-6.5552,5.998
	c-3.7952,3.2922-7.7161,6.6978-10.5945,10.7312c-6.493,3.9114-11.6199,9.7412-16.5769,15.3831
	c-0.5857,0.6667-1.1685,1.3292-1.7498,1.9854c-1.8064,0.6692-3.9409,2.7053-4.3127,4.5894
	c-4.2915,2.9172-8.7793,7.2853-12.0519,11.7383c-4.3024,3.1736-7.8574,7.259-11.2943,11.2119
	c-2.3213,2.6694-4.7212,5.4297-7.3745,7.9282c-0.9312,1.2114-2.2207,2.3096-3.4678,3.3721
	c-2.2961,1.9553-4.6566,3.9833-5.2578,6.9688c-6.0208,4.7439-11.3059,10.7493-16.416,16.5615
	c-2.7686,3.1489-5.6309,6.4048-8.5488,9.3823l0.0029,0.0037l-0.0347,0.032c-0.9365,1.1567-2.0898,2.312-3.2051,3.4287
	c-1.6272,1.629-3.301,3.314-4.4277,5.1077c-1.762,0.9373-3.1007,2.4197-4.3901,3.863c-0.5273,0.5908-1.0732,1.2012-1.6289,1.7485
	l-0.0757,0.0957c-1.5771,2.5767-3.8101,4.7197-5.9702,6.793c-1.9897,1.9102-4.0425,3.8872-5.6024,6.21
	c-3.7361,2.2944-7.0677,5.9983-8.5702,9.5122c-1.793,0.8774-3.3569,2.4404-4.1831,4.1682l-0.5842,0.0432l-0.1323,0.1362
	c-4.3633,4.501-8.9204,8.9897-13.3276,13.3306c-7.0787,6.9725-14.3953,14.1819-21.1135,21.6387
	c-0.7372,0.0881-1.6034,0.5413-2.1013,1.9779c-0.6483,0.0596-1.5271,0.4142-1.7886,1.7799c-2.5392,1.8721-4.7346,4.196-6.855,6.4512
	c-2.1611,2.2983-4.396,4.6753-6.9868,6.5405c-2.4585,1.8555-4.647,4.0645-6.7632,6.2002c-2.4658,2.4888-5.0151,5.0625-7.9736,7.0435
	l-0.1289,0.125c-1.3262,1.8599-3.2886,3.355-5.186,4.8013c-2.1484,1.6372-4.365,3.3315-5.6718,5.5685
	c-6.6732,5.2537-13.6445,11.2357-20.1664,17.306c-1.7623,1.448-3.561,2.892-5.3703,4.3438
	c-5.8043,4.6582-11.8002,9.4751-16.9636,14.769c-0.1936-0.0486-0.3871-0.082-0.5784-0.082c-1.6074,0-2.6362,1.6377-3.3872,2.8335
	l-0.1036,0.1643c-0.1599,0.1842-0.4084,0.4835-0.6098,0.7268l-0.0541,0.0667c-1.9423,0.0911-3.7062,1.5753-5.1182,4.3204
	c-6.4901,4.0585-12.5417,9.026-18.3941,13.8322c-2.9863,2.4526-6.0747,4.9888-9.1938,7.3804
	c-3.0874,2.6377-6.4556,5.189-9.7129,7.6563c-4.6649,3.5334-9.4846,7.1865-13.5745,11.1642
	c-1.4249,0.2489-3.329,1.4418-4.0406,2.8295c-1.1996,0.5826-2.1963,1.4862-3.1564,2.3701
	c-1.1377,1.0469-2.2134,2.0371-3.6055,2.5298c-1.603,0.0078-2.5889,0.3345-3.0996,1.0254c-0.6558,0.8867-0.2886,2.084,0.0352,3.1406
	c0.1055,0.3452,0.207,0.6753,0.2715,0.9795c-0.6342,0.6418-1.3632,1.2917-2.1473,1.9303c-0.9076-0.3273-1.8153-0.6136-2.7018-0.84
	l-0.2075-0.0532l-0.1812,0.1138c-3.9079,2.447-7.5052,5.4735-11.1504,8.6212c-0.982,0.3353-1.7051,1.0372-2.1415,2.0497
	c-2.5954,0.8369-5.4048,2.9263-6.9603,5.1863c-4.442,2.0388-9.0096,5.4615-11.9714,8.9751
	c-8.5692,5.6411-16.8832,11.9653-24.9238,18.0818c-8.0313,6.1099-16.3359,12.4272-24.8921,18.062l-0.1318,0.0869l-0.2982,0.7537
	c-1.002,0.6863-2.1313,1.2828-3.3312,1.9089c-2.4782,1.2925-5.0309,2.6335-6.4232,4.8999c-0.2523,0.134-0.5176,0.2683-0.7975,0.4077
	c-1.6991,0.8452-3.7595,1.8945-4.1024,3.8889l-1.632,0.0349l-0.1279,0.0957c-2.5,1.8647-5.1611,3.604-7.7344,5.2856
	c-3.1699,2.0718-6.4482,4.2144-9.4775,6.624l-0.1992,0.1582l0.0309,0.7336l-1.5245,0.1565l-0.106,0.0752
	c-12.6338,8.9771-26.8018,15.8433-40.5034,22.4839l-2.0508,0.9952c-0.5671-1.0362-1.9052-1.0436-2.3926-1.0436
	c-0.6309,0-1.3276,0.082-2.002,0.1616c-0.6372,0.0747-1.2959,0.1523-1.8521,0.1523c-1.0532,0-1.3174-0.2788-1.4243-0.4888
	l-0.1157-0.2271l-0.2515-0.0396c-12.4414-1.9673-25.2114-2.5161-37.5605-3.0469c-7.5161-0.3228-15.2886-0.6567-22.8848-1.3076
	l-0.5371-0.0464l-0.0058,0.5868c-0.978-0.5943-2.1552-0.8832-3.6363-0.8832c-1.1919,0-2.436,0.1816-3.6392,0.3574
	c-1.6216,0.2364-3.1984,0.4359-4.3832,0.2593l-0.4944-0.1118c-0.5244-1.406-2.3074-1.4248-2.929-1.4248
	c-0.8564,0-1.8081,0.1172-2.729,0.2305c-1.0712,0.132-2.064,0.257-2.7886,0.1768c-2.4481-1.1803-5.1288-1.4281-7.7236-1.6636
	c-1.0352-0.0938-2.106-0.1909-3.1719-0.3521c-5.1504-0.356-10.3296-1.2715-15.3384-2.1567
	c-4.7033-0.8312-9.5633-1.6837-14.4293-2.0811c-0.598-1.2319-2.1892-1.248-2.9067-1.248c-0.3384,0-0.6826,0.0146-1.0166,0.0288
	c-0.4905,0.0215-0.9493,0.0362-1.329-0.0015c-0.5995-0.6284-1.6028-0.9633-3.0328-0.9633c-1.3574,0-2.8054,0.2786-3.819,0.5221
	c-7.67-1.2998-15.3309-1.8268-22.6058-2.2409l-0.0894-0.9252l-0.418-0.0337c-3.4595-0.2759-6.9736-0.8579-10.3716-1.4209
	c-3.7021-0.6131-7.53-1.2464-11.3914-1.4863l-0.0002-0.002c-0.9907,0.085-2.1079-0.0737-3.3042-0.2422
	c-1.001-0.1411-2.0366-0.2871-3.0244-0.2871c-1.8955,0-3.2139,0.5483-4.1494,1.7261l-0.083,0.1543
	c-0.6543,1.9829,1.0879,3.1069,2.3604,3.9277c0.2412,0.1558,0.4746,0.3062,0.7607,0.5015c0.8208,0.3872,1.6567,0.835,2.4653,1.2681
	c2.351,1.2596,4.7825,2.5536,7.5148,2.7963c1.5038,1.4066,3.6494,2.1095,5.7313,2.7838c0.7882,0.2552,1.5325,0.4966,2.2292,0.7711
	l0.3016,0.1298c4.1262,1.7751,8.3924,3.6102,12.7323,5.088l0.4567,0.2241c3.3483,1.6436,6.8104,3.3377,10.5275,4.0181
	c1.4364,1.3641,3.173,2.0894,5.0374,2.0894l0.0181-0.0003l1.9085,0.728c3.2986,2.6961,8.3751,4.716,13.0179,5.1921l0.4763,0.5456
	l0.1802,0.0278c8.9269,1.3718,17.9412,2.0892,26.7946,2.1346c0.7842,0.4399,1.6146,0.6749,2.4738,0.7008
	c0.9537,0.5526,1.9095,1.1807,2.8347,1.7916c2.1929,1.4481,4.4611,2.9355,7.0917,3.6581c0.6024,1.3478,1.8411,2.0092,3.0494,2.6412
	c0.7642,0.3999,1.4863,0.7778,2.0171,1.3125l0.1016,0.0786c4.3623,2.5649,8.6504,5.4233,12.7979,8.1875
	c3.7802,2.5192,7.6847,5.1131,11.6547,7.5008c-2.6071,1.8448-5.5396,4.1506-5.6093,7.6706l-0.0049,0.2412l0.1865,0.1543
	c1.8291,1.5107,3.8276,2.3091,5.7788,2.3091c0.584,0,1.1674-0.0784,1.738-0.2201l1.5959-0.295
	c2.9081-0.5411,5.913-1.0967,8.8958-1.3246c4.7378,3.421,10.593,7.6308,16.5288,10.5652l0.425,0.8214l0.1045,0.0713
	c13.3364,9.103,27.3301,17.8311,39.6812,25.5337l0.1304,0.0796c1.2415,0.7574,2.5281,1.5298,4.0217,1.7993
	c3.5714,3.4218,8.4381,5.3466,13.1502,7.2042c1.3433,0.5295,2.6131,1.0314,3.8571,1.5666c1.4681,2.0512,4.6039,2.6104,7.1453,3.0526
	c0.329,0.0575,0.6439,0.1132,0.9493,0.1703c1.9868,1.915,5.3416,2.198,8.0571,2.4176c0.645,0.0518,1.2603,0.1016,1.8188,0.1694
	l0.0182,0.0023c1.3555,0.255,2.8104,0.3864,4.3289,0.3864c1.3538,0,2.7601-0.1002,4.2892-0.3013l2.5848,0.4106l-0.4142-0.9091
	c3.4968-0.5953,6.9394-1.5855,10.2726-2.5591c1.1062-0.323,2.2123-0.6441,3.3209-0.9529l0.0141,0.0091l0.2125-0.074l0.1874-0.0519
	c0.7852-0.254,1.6703-0.4197,2.6148-0.5861c1.9536-0.3443,3.9637-0.7091,5.2026-2.0012c10.4022-2.1872,20.8746-4.983,31.0039-7.6882
	c7.7087-2.0589,15.6769-4.185,23.5751-6.0333c7.9075,9.0458,15.3053,18.8717,22.4601,28.379
	c4.0083,5.3262,8.1531,10.8329,12.3068,16.0912c0.7136,1.918,1.7249,3.4836,3.0007,4.6716c0.0431,1.0269,0.7421,1.7401,1.3718,2.371
	c0.248,0.248,0.4763,0.4843,0.6644,0.7271c0.1218,0.9861,0.7771,1.704,1.3654,2.3388c0.294,0.3169,0.5717,0.6169,0.7811,0.9366
	c0.8267,1.353,1.6598,2.7089,2.4952,4.0683c4.29,6.9805,8.7261,14.1992,12.5815,21.5513l0.0928,0.125
	c0.2524,0.2471,0.3394,0.7993,0.4238,1.3335c0.1368,0.8687,0.3327,2.0341,1.519,2.1277c0.0042,0.033,0.0081,0.0591,0.0123,0.093
	c0.1555,1.2515,0.3763,2.9235,1.4528,3.5646c1.1534,2.6351,2.0738,5.4769,2.9618,8.2289c1.1572,3.5867,2.3573,7.2908,4.1447,10.6793
	c-0.1738,2.0443,0.259,4.0189,0.6819,5.9296c0.2183,0.9873,0.4443,2.0068,0.5781,3.0127l0.0591,0.4434l0.9854-0.0214l0.0562,0.2902
	c-0.051,0.6054-0.1426,1.2461-0.2378,1.9031c-0.3892,2.6929-0.8201,5.7299,1.2974,7.8031
	c-0.9079,4.2343-1.3219,7.5281-1.3324,10.6134l-0.0216,0.0435c-0.8823,1.7737-1.7834,3.6058-2.002,5.6146
	c-0.5947,0.0565-1.1389,0.3644-1.6035,0.9059c-0.7037,0.8191-1.1453,2.1256-1.1069,3.1819
	c-4.4921,2.5195-8.429,7.4551-11.0421,11.0328l-0.144,0.0636l-0.0027,0.0278c-3.1778,1.7108-7.3667,4.3593-9.8813,7.5122
	c-1.8101,1.121-3.4852,2.7853-5.2639,5.2335c-0.1484,0.1876-0.4005,0.5013-0.5941,0.7394
	c-3.0314,0.0657-4.9559,3.4009-5.4635,6.5056l-0.0928,0.5684l0.5757,0.0127c0.2744,0.0059,0.5825,0.0117,0.9111,0.0117
	c1.9165,0,4.4827-0.2112,5.2924-1.8306c3.6315-1.3141,7.0988-3.1345,10.4512-4.9009c3.9604-2.0859,8.0552-4.2432,12.4087-5.541
	l0.2671-0.0801l0.1801-0.6683c1.6412-0.4426,3.2166-1.1271,4.7404-1.7985c1.2021-0.5293,2.4453-1.0771,3.769-1.5186
	c0.3906-0.2021,0.8706-0.3506,1.3784-0.5088c1.172-0.3644,2.5939-0.8195,3.0986-2.1763l0.0068,0.0005l0.0305-0.1012
	c2.23-0.4052,4.3623-1.1409,6.3391-2.2065c2.8338-1.1434,5.9108-1.9808,8.8868-2.7899c2.255-0.6134,4.3842-1.1943,6.4059-1.8939
	c1.1577-0.2234,2.7476-0.1553,4.41-0.0319c0.8716,0.0645,1.7734,0.1318,2.6533,0.1318c2.0825,0,3.5736-0.3912,4.7907-1.24
	c1.875,0.1113,3.8671,0.1667,6.0882,0.1667c2.4468,0,4.9346-0.0679,7.05-0.1339c1.1891,0.1101,2.4683,0.1613,4.0237,0.1613
	c0.9404,0,1.8823-0.0176,2.8281-0.0361c0.9478-0.0176,1.8994-0.0361,2.8579-0.0361l0.2155,0.0004
	c2.059,0.0476,4.2816,0.0719,6.7938,0.0719c2.6865,0,5.3755-0.0264,8.0684-0.0527l3.158-0.0287
	c1.084,0.0514,2.2188,0.0756,3.5676,0.0756c1.1196,0,2.2388-0.0166,3.3652-0.0332c1.0051-0.0145,2.0159-0.03,3.0386-0.0331
	c3.4026,0.0684,6.9756,0.1024,10.6201,0.1024l1.0444-0.0037c0.3186,0.9978,1.4375,1.2621,3.1245,0.661
	c1.2329,0.1833,2.5692,0.2743,4.0854,0.2743c1.415,0,2.855-0.0762,4.2471-0.1494c0.696-0.0367,1.3945-0.0729,2.0959-0.1007
	c0.3307,0.0723,0.6804,0.2484,1.0505,0.4406c0.5684,0.2939,1.1563,0.5986,1.8276,0.5986c0.2228,0,0.4353-0.0414,0.6235-0.1028
	c1.2188,0.2084,2.5126,0.3079,4.063,0.3079c1.1479,0,2.3184-0.0537,3.4502-0.1055c0.6655-0.0313,1.3345-0.0615,2.0078-0.082
	l0.0554-0.0017l0.4294,0.1084c0.5898,1.2271,2.2291,1.2468,2.8066,1.2468c0.002,0,0.0034,0,0.0049,0
	c0.7793,0,1.6563-0.0977,2.5049-0.1924c1.3352-0.1479,2.7-0.252,3.4811-0.068l0.0756,0.9918l0.4517,0.0049
	c3.332,0.0352,6.7046,0.4678,9.9663,0.8857c2.1907,0.2813,4.4558,0.5709,6.6982,0.741c2.6682,0.3835,5.3809,0.8641,8.0039,1.3293
	c5.2083,0.9222,10.5898,1.8713,15.9634,2.1351l0.3652,0.7604l0.3057,0.0078c3.2002,0.082,6.3984,0.8477,9.4907,1.5879
	c3.3169,0.7939,6.7466,1.6152,10.23,1.6152c0.2192,0,0.4482-0.0093,0.6746-0.0165c0.9883,1.829,4.1929,1.8671,7.0417,1.8993
	c1.1689,0.014,2.2683,0.0294,3.0891,0.1627c1.1436,1.0569,2.6769,1.6058,4.5842,1.6058c0.428,0,0.8813-0.0302,1.3281-0.0813
	c1.4984,0.212,3.0165,0.6283,4.4854,1.0325c2.1743,0.5977,4.4229,1.2158,6.7275,1.2158c0.3992,0,0.7914-0.0275,1.1764-0.0643
	c1.9552,1.2806,4.2175,1.3059,6.4095,1.3202l0.1838,0.0013c1.2639,1.6595,4.2891,1.7499,6.9929,1.8131
	c1.0049,0.0242,1.9519,0.051,2.749,0.1493l0.021,0.8663l0.4648,0.0215c2.6772,0.1279,5.3574,0.7129,7.9497,1.2783
	c1.8906,0.4124,3.8423,0.8306,5.8062,1.0852c0.0282,0.1494,0.087,0.2678,0.1489,0.3542c0.311,0.4326,0.9219,0.4873,1.4189,0.4873
	c0.4619,0,1.0063-0.0566,1.5322-0.1123c0.5005-0.0537,1.0181-0.1084,1.4272-0.1084c0.2467,0,0.3826,0.021,0.4773,0.043
	c1.441,1.6071,4.5577,1.8263,7.3318,2.0078c0.5608,0.0375,1.0889,0.075,1.5801,0.1208c0.552,0.9293,1.6323,0.9417,2.0659,0.9417
	c0.2524,0,0.5137-0.0156,0.7739-0.0303c0.4604-0.0269,0.9146-0.0366,1.2239,0.0173c1.1427,1.3373,3.4482,1.5702,5.6936,1.7825
	c0.8579,0.0815,1.6628,0.1616,2.3464,0.2987c0.9799,0.8545,2.4064,1.4147,3.976,1.5437c0.5741,0.1479,1.1476,0.3337,1.724,0.5199
	c1.3394,0.4336,2.7241,0.8818,4.1719,0.8818c0.438,0,0.8647-0.0511,1.2787-0.1342c1.7142,1.1696,3.9781,1.873,6.6132,2.0524
	c0.2957,1.0109,1.3987,1.174,2.2327,1.2947c0.4795,0.0693,0.9746,0.1406,1.2651,0.334l0.1567,0.0684
	c2.6284,0.6484,5.2021,1.7002,7.6909,2.7168c2.1658,0.8857,4.4036,1.795,6.6698,2.4392c0.9435,1.733,2.9991,2.3713,5.0016,2.9778
	c1.058,0.3207,2.134,0.6599,2.9844,1.1465c-0.6775,1.8699-2.2092,3.2233-3.8369,4.6445c-1.5669,1.3669-3.1775,2.7836-3.9268,4.7076
	c-2.1732,1.2991-5.2059,3.6334-6.7512,5.5496c-2.8701,2.0298-5.9216,4.5149-7.166,7.6006
	c-2.2775,0.3979-4.3193,3.0342-5.1016,4.8989c-2.9459,1.1447-5.1677,4.2656-6.9578,6.798l-0.0105,0.016
	c-1.4287,0.6609-2.5023,1.7909-3.5334,2.8951c-0.457,0.4893-0.8887,0.9512-1.4033,1.4316c-1.543,1.9307-3.499,3.6768-5.3906,5.3662
	c-3.1147,2.7803-6.3354,5.6563-7.9404,9.5137l-0.252,0.6055l0.8743,0.1113l-0.344,0.5215l0.197-0.064
	c-0.1638,0.3313-0.3259,0.6714-0.4875,1.0278c-0.3916-0.1445-0.7905-0.2168-1.1899-0.2168c-2.5549,0-4.5503,2.9557-5.5544,4.818
	c-1.1802,0.6403-4.1527,2.3503-4.2974,5.1243c-1.7612,1.2848-3.7319,2.7418-4.7021,4.8812
	c-1.8159,0.8523-3.3906,2.4105-4.306,4.2465l-0.4447-0.0651l-0.1738,0.2734c-3.0386,4.7832-6.6113,9.333-10.0664,13.7334
	c-4.6298,5.8961-9.4115,11.9937-13.0076,18.761l-0.8259,0.2332l-0.1025,0.1523c-4.459,6.6113-9.522,13.3096-15.0977,19.9775
	c-0.5508,0.9473-1.335,1.79-2.165,2.6816c-1.3577,1.459-2.7495,2.9707-3.1201,5.0223c-2.7283,1.7526-4.9655,4.8179-5.8257,8.031
	c-2.8972,1.5647-5.2327,5.6074-6.1183,8.9619c-1.3219,0.6027-1.6241,1.4805-1.5826,2.2122
	c-1.3516,1.1647-2.4937,3.005-2.3685,4.8425c-0.6345,0.1523-1.224,0.5352-1.725,1.1449c-0.835,1.0154-1.3167,2.5604-1.2111,3.7858
	c-1.9645,1.9506-5.3202,5.4009-5.059,9.3303c-5.5703,6.1058-9.9124,13.2604-14.1084,20.1837
	c-1.5356,2.5332-3.1235,5.1523-4.7813,7.7422c-0.6792,1.5283-1.6104,2.999-2.5112,4.4209
	c-1.4302,2.2571-2.8992,4.5934-3.4983,7.3561c-1.8455,1.2318-2.5256,3.7933-3.0667,5.8744l-0.0795,0.3027
	c-4.2623,6.2229-7.5194,11.6685-9.9564,16.6401c-1.1671,0.3411-1.9253,1.5176-2.0693,3.2267
	c-3.4131,3.6044-6.9778,7.8186-6.8011,12.4247c-0.1211,0.2463-0.2826,0.5701-0.4501,0.9048l-0.3257,0.6541
	c-1.05-0.0216-1.7234,0.7552-2.3086,1.4368c-0.2373,0.2764-0.4619,0.5381-0.6914,0.7246l-0.1079,0.1221
	c-1.3633,2.1719-2.71,4.3516-4.0557,6.5313c-3.0435,4.9268-6.1904,10.0215-9.4507,14.8799c-0.6357,0.79-1.4067,1.5137-2.1519,2.2129
	c-1.4861,1.3947-3.0134,2.8411-3.7009,4.9531c-1.0183,0.6503-2.2356,1.6868-2.7385,3.1086
	c-2.6625,1.3345-4.9264,4.0117-6.0991,7.2312c-0.1118,0.1254-0.2576,0.2863-0.4102,0.4541l-0.4004,0.4453
	c-3.4574,2.2445-6.4102,5.379-9.2656,8.4121c-2.9302,3.1133-5.9604,6.332-9.5518,8.6152l-0.146,0.1416
	c-2.3677,3.4922-5.5405,5.9492-8.9331,6.9189l-0.6338,0.1807l0.5507,0.8956c-0.8986,0.974-2.1278,1.4558-3.4281,1.9559
	c-1.4604,0.5615-2.9707,1.1426-4.0293,2.4395c-10.6729,10.3125-24.165,17.0127-37.2129,23.4932
	c-2.4722,1.2275-4.9404,2.4531-7.4106,3.7139c-0.8013,0.4668-1.6558,0.8584-2.5601,1.2725
	c-2.0063,0.9191-4.0753,1.8746-5.4944,3.6882c-1.9091,0.8253-3.8135,1.6744-5.72,2.5256
	c-8.9258,3.9844-18.1553,8.1045-28.002,9.6514l-0.5415,0.085l0.2177,0.8616c-0.2172-0.0123-0.4314-0.0383-0.6498-0.0383
	c-2.8877,0-5.6011,1.0527-8.2256,2.0713c-1.9004,0.7373-3.8652,1.499-5.8462,1.832l-0.124,0.0381
	c-0.8872,0.4043-1.917,0.6406-3.0073,0.8916c-1.7971,0.4131-3.6505,0.8457-4.9854,2.0576
	c-2.8352,0.3539-5.6932,0.8879-8.4589,1.4063c-2.4497,0.459-4.981,0.9346-7.4824,1.2793c-0.0853-0.0332-0.1621-0.0546-0.2448-0.0841
	c-0.0934-0.0337-0.1849-0.0652-0.2747-0.0944c-0.1693-0.0541-0.3304-0.0974-0.4877-0.1353
	c-0.3831-0.0958-0.7419-0.1619-1.046-0.1619c-0.1112,0-0.1945,0.0221-0.2913,0.0338c-0.0198,0.0021-0.0395,0.0043-0.0588,0.0068
	c-0.1349,0.0197-0.2596,0.0447-0.3679,0.083c-0.0305,0.0101-0.0576,0.0236-0.0867,0.035c-0.0946,0.0398-0.1862,0.0792-0.2606,0.1294
	c-0.0395,0.0254-0.0724,0.0571-0.1083,0.0861c-0.0583,0.0488-0.1165,0.0952-0.1613,0.1471c-0.0294,0.0334-0.054,0.0709-0.08,0.1074
	c-0.0233,0.0334-0.0555,0.0673-0.0744,0.0999c-0.01,0.0173-0.0111,0.0399-0.0203,0.0577c-0.0162,0.031-0.0393,0.0559-0.0534,0.0887
	c-2.6045,0.207-4.9639,0.1973-7.2129-0.0264l-0.6025-0.0605l0.1311,1.4417c-2.3026,0.0143-4.6263,0.0406-6.9277,0.1433
	c-0.9506-0.1178-1.9003-0.23-2.8299-0.3242l-0.1431-0.001l-0.0444,0.0029c-0.2661,0-0.6216-0.0635-0.998-0.1309
	c-0.4531-0.0801-0.9214-0.1641-1.3633-0.1641c-1.1158,0-1.5282,0.584-1.6762,1.1133c-0.6948,0.068-1.6584,0.0017-2.6783-0.0977
	c-0.7495-0.0723-1.5249-0.1465-2.2363-0.1465c-1.0096,0-2.3619,0.144-2.9764,1.2167l-0.6953,0.0139
	c-2.6859-0.1393-5.3737-0.1362-7.9865,0.0107c-3.4631-0.1947-7.2524-0.1075-11.2599,0.2581
	c-4.4082-0.33-8.689-0.7438-12.0509-1.0831l0.0154-0.0461l-0.6649-0.0194l-0.3702-0.0382l-0.009,0.0271l-6.212-0.1818l0.0194-0.8453
	l-0.4678-0.04c-1.583-0.1367-3.1919-0.332-4.748-0.5205c-2.9189-0.3545-5.938-0.7207-8.9424-0.7207
	c-0.6669,0-1.3141,0.0223-1.9375,0.0577c-0.2523-0.7057-0.9742-1.0685-2.1699-1.0685c-0.6714,0-1.4458,0.1016-2.1948,0.2002
	c-0.707,0.0938-1.4385,0.1895-2.0273,0.1895c-1.0352,0-1.1255-0.291-1.1553-0.3867l-0.0908-0.2939l-0.3022-0.0518
	c-14.8779-2.5488-29.3887-7.3916-43.4214-12.0752c-3.629-1.2108-7.2584-2.4204-10.8969-3.595
	c-0.3195-1.0677-2.0439-1.2882-3.4683-1.4626c-0.5046-0.0621-0.9767-0.1223-1.3232-0.2063
	c-1.6993-2.3827-5.6395-3.7959-8.9756-4.0516c0.0122-0.1829-0.0141-0.3555-0.0918-0.5135c-0.312-0.6348-1.1895-0.7539-2.0386-0.8682
	c-0.3522-0.0477-0.7652-0.1064-1.0187-0.1967c-0.2784-1.8987-2.7413-2.5829-4.7435-3.1364c-0.4659-0.129-0.9-0.2495-1.2678-0.377
	c-6.6707-4.6703-13.8812-8.8329-20.8568-12.8564c-3.9357-2.2716-8.0037-4.6193-11.9237-7.0291
	c-0.4794-1.0823-1.4348-1.6964-2.3776-2.2747c-0.5269-0.3232-1.0244-0.6289-1.4795-1.0576
	c-6.7954-4.623-12.9448-10.3008-18.8911-15.791c-2.1331-1.97-4.3366-4.0022-6.5301-5.9495l0.0003-0.0076l-0.1841-0.1582
	c-0.0087-0.0074-0.018-0.016-0.0267-0.0234l-0.7521-0.667l-0.0001,0.0033c-3.7807-3.3375-8.3143-7.9077-13.5124-13.6335
	c-2.8448-3.332-5.618-6.8552-8.3-10.2623c-3.6045-4.5791-7.332-9.3145-11.3149-13.6943l-0.1021-0.085
	c-2.5889-1.6455-4.0688-4.2861-5.6362-7.0811c-1.3068-2.3312-2.6629-4.736-4.7148-6.4777c-0.1594-0.989-0.5468-1.861-1.1495-2.5867
	c-0.1942-2.0267-1.3669-3.6401-2.5096-5.1993c-0.6577-0.8975-1.2793-1.7461-1.7598-2.7324
	c-1.0586-1.4971-1.8208-3.2461-2.5576-4.9375c-0.7965-1.8279-1.626-3.7119-2.8334-5.3158l-0.0172-0.1998l-0.0751-0.0245
	c-0.4061-1.2227-1.0284-2.6738-2.1843-3.7244l-0.0019-0.0099c-0.5761-2.9725-1.5238-7.837-4.2508-8.8347
	c0.4232-2.6079-0.9894-5.4902-2.7639-7.184c-0.0188-1.8459-0.7497-3.4829-1.4653-5.0653c-0.3638-0.8047-0.7397-1.6367-1.0259-2.5273
	c-0.8071-1.7207-1.438-3.5811-2.0483-5.3809c-0.907-2.6744-1.8483-5.437-3.4108-7.885c-0.0579-2.9355-0.9515-5.7501-1.8201-8.4734
	c-0.5615-1.7598-1.1421-3.5801-1.4717-5.3789l-0.0518-0.2842l-1.0342-0.3698c0.0448-4.649-1.2457-10.2762-3.5816-15.5336
	c-0.3986-2.2535-0.6422-4.6633-0.8778-6.9951c-0.4359-4.3217-0.8889-8.7897-2.3453-12.6162
	c-0.2261-2.3457-0.5067-4.7369-0.7782-7.0508c-0.8334-7.0967-1.6854-14.4291-1.1412-21.6794l0.0089-0.0002l0.0188-0.4637
	l0.0452-0.5372l-0.03,0.0006c0.1215-3.4304,0.0798-6.9054,0.0339-10.2731c-0.0142-1.0765-0.0288-2.1503-0.0381-3.2191
	c0.1496-4.0494,0.0878-8.1085,0.0148-12.0574l0.0497,0.0265l-0.0646-0.8761l-0.0057-0.288l-0.0083-0.0043
	c-0.4039-6.0537,0.519-12.1306,1.418-18.0114c0.6649-4.3474,1.3448-8.8367,1.4913-13.3474l0.9057,0.1736l0.0562-0.542
	c0.3623-3.4736,1.2041-6.9541,2.0186-10.3193c0.9617-3.9744,1.9465-8.0798,2.1728-12.2469
	c0.3621-0.0491,0.6008-0.2142,0.7359-0.3634c0.5137-0.5645,0.4185-1.5664,0.3262-2.5352c-0.0358-0.3782-0.0704-0.7814-0.0598-1.0988
	c0.403-0.0006,0.6498-0.1857,0.7858-0.3417c0.4771-0.5449,0.3452-1.5332,0.2051-2.5791c-0.0499-0.3741-0.1069-0.8101-0.108-1.1179
	l0.8712-0.1506l0.042-0.373c0.5156-4.585,1.8848-9.084,3.209-13.4346c1.0359-3.4043,2.1038-6.9235,2.7619-10.4684
	c1.4106-1.8497,2.1658-4.2996,2.0794-6.6754l0.7837-0.0681l0.0977-0.3242c0.8472-2.8096,2.0591-5.6426,3.231-8.3828
	c1.2433-2.9067,2.5214-5.8998,3.3594-8.8621l0.0083,0.0183l0.3185-1.2694c2.5948-2.7117,4.103-6.5203,5.5575-10.2101
	c0.5483-1.3901,1.0689-2.7018,1.6373-3.9425c1.6967-0.8093,2.3273-2.8467,2.9262-4.8329c0.3511-1.1638,0.683-2.2639,1.2051-3.0487
	c2.5846-3.4387,5.4336-7.5427,7.076-11.9692c1.1473-0.7611,1.8536-1.8485,2.0132-3.0989c2.2834-1.9352,3.7119-4.7804,4.7065-7.1256
	l0.6769-0.2068l0.0991-0.1582c3.0215-4.8086,6.6694-9.3135,10.1968-13.6699c2.7999-3.4586,5.6931-7.0333,8.2438-10.726
	c0.217-0.1784,0.4524-0.354,0.6956-0.5328c0.8892-0.6548,1.879-1.396,2.2203-2.5937c4.2381-3.3363,7.0488-6.2314,8.8256-9.0895
	c2.4221-1.104,4.934-3.7587,6.6079-5.5345l0.0778-0.0823c1.5921-1.3547,3.3201-2.6667,4.9925-3.9352
	c2.5374-1.9247,5.1572-3.9168,7.4312-6.1463c3.1226-1.0306,5.407-2.7161,6.8019-5.0076c3.7458-0.9288,7.1603-3.4883,10.0834-5.8578
	c0.9658-0.1029,2.1468-0.4709,2.7445-1.2319c0.2426-0.3093,0.3738-0.6657,0.3917-1.0464c0.7035-0.2996,1.4933-0.5613,2.3422-0.8296
	c2.2252-0.7024,4.5089-1.4401,5.7042-3.1675c0.0549,0.0023,0.1061,0.0098,0.1625,0.0098c1.7574,0,4.2593-1.1245,4.6619-2.9755
	c0.7551-0.3094,1.5435-0.6158,2.3547-0.9283c3.8895-1.5003,8.2919-3.2016,10.7623-6.1889
	c4.7744-3.5988,5.1688-11.8458,2.3221-16.8458c-0.8477-1.5142-2.2651-2.25-4.333-2.25c-1.0977,0-2.2549,0.1938-3.3745,0.3818
	c-1.3311,0.2231-2.5698,0.4346-3.5703,0.2969l-0.1172-0.0166l-0.1123,0.0381c-2.3794,0.8066-5.0352,1.1543-7.603,1.4907
	c-3.7476,0.4907-7.6194,1.0029-10.8383,2.9371c-4.3444,0.3574-8.448,1.9534-12.4171,3.5004
	c-1.7427,0.6792-3.5449,1.3818-5.3252,1.96l-0.3848,0.125l0.0795,0.7627l-1.6757-0.1514l-0.1128,0.0459
	c-17.7656,7.2051-32.23,15.043-44.2202,23.9619l-0.1797,0.1338l-0.02,0.2231c-0.0684,0.7607-1.0771,1.1797-2.146,1.623
	c-1.098,0.4558-2.3184,0.972-2.5481,2.0492c-2.5322,0.8228-4.7847,2.6298-6.2286,5.0221c-0.2444,0.2189-0.6289,0.5729-0.8922,0.8156
	c-1.1557,0.0758-2.1104,0.5622-2.7886,1.4393c-2.6274,2.5986-5.5679,5.0205-8.4111,7.3623
	c-5.1661,4.2544-10.4979,8.6578-14.2914,14.3614c-1.103-0.0472-1.8173,0.7371-2.4337,1.4282
	c-0.2749,0.3081-0.5342,0.5991-0.8677,0.8521c-0.6973,0.7056-1.4028,1.4136-2.1133,2.1265
	c-5.9653,5.9854-12.1223,12.1733-15.8873,19.4249l-0.0092-0.0055l-0.2417,0.4805c-0.9951,1.9807-2.2681,3.6078-3.7729,4.8588
	l-0.8272-0.1938l-0.1968,0.252c-16.4487,21.0791-29.2246,43.3818-37.9873,66.3311c-0.4189,1.4756-1.1831,2.9082-1.9219,4.292
	c-1.1724,2.1968-2.3672,4.4691-2.3446,7.0979c-0.9258,0.3468-1.2554,1.2982-1.5265,2.0828
	c-0.1411,0.4082-0.2744,0.7939-0.4658,1.0684l-0.0605,0.1182c-0.5234,1.4629-1.1411,2.9424-1.7383,4.374
	c-1.4135,3.3865-2.8699,6.8882-3.2985,10.6208c-1.3576,1.734-1.9975,4.2103-2.6121,6.6116
	c-0.4971,1.9434-1.0117,3.9531-1.8975,5.5479l-0.0439,0.1064c-0.814,2.8613-1.7407,5.7744-2.6362,8.5908
	c-2.4521,7.7104-4.9702,15.6785-5.6354,23.9132l-0.8959-0.2238l-0.0854,0.5381c-0.687,4.3135-1.5737,8.6777-2.4312,12.8994
	c-1.6972,8.3563-3.4445,16.9923-3.7524,25.7152l-0.9044,0.0504l-0.0083,0.4648c-0.0483,2.7676-0.3486,5.583-0.6392,8.3047
	c-0.1284,1.2001-0.2546,2.4014-0.3635,3.6067l-0.0076,0.0095l-0.0081,0.147l-0.1467,1.6519l0.0781-0.0979
	c-0.1147,2.761-0.1254,5.4624-0.1075,7.9347c-0.3479,0.0597-0.5734,0.2261-0.7006,0.379c-0.5391,0.6484-0.3242,1.8066-0.0972,3.0332
	c0.1196,0.6445,0.2432,1.3105,0.188,1.6631l-0.0112,0.0732l0.0042,0.03c-0.4386,8.0084-0.3595,16.1682-0.282,24.0598
	c0.0454,4.6455,0.0923,9.4482,0.0332,14.168l-0.0063,0.501l0.9742,0.0098c-0.038,3.0994,0.0683,6.2284,0.3426,9.797
	c0.0078,0.2252-0.0958,0.6689-0.1967,1.0985c-0.2412,1.0293-0.4907,2.0928,0.0024,2.7148c0.1326,0.1675,0.402,0.3445,0.799,0.387
	c0.0083,5.0726,0.6907,10.0688,1.4017,14.7635l-0.0053,0.0673l0.0488,0.1143c0.2524,0.5889,0.1797,2.0674,0.1157,3.3711
	c-0.1099,2.2324-0.1333,3.6338,0.4668,4.2646c0.2195,0.2308,0.5063,0.3218,0.8279,0.2964
	c2.1975,17.1873,6.5533,33.7283,10.5383,47.6685l0.1245,0.4346l0.7173-0.1289c-0.4443,2.5669,0.5837,4.9448,1.5976,7.25
	c0.2656,0.603,0.5289,1.202,0.7613,1.7985c6.7286,21.3165,15.3549,41.7577,25.6577,60.7855
	c1.6328,2.5791,3.1235,5.3613,4.5654,8.0518c2.4261,4.5269,4.9359,9.205,8.2159,13.1119c0.1513,0.3186,0.2516,0.7755,0.3568,1.2621
	c0.2465,1.1401,0.562,2.5255,1.8176,2.808c1.0662,1.5275,2.0755,3.1526,3.0506,4.7291c1.9689,3.1847,4.0074,6.4731,6.673,9.1862
	c0.1045,1.3771,0.9438,2.6021,2.2041,3.2357c0.3209,2.3405,2.21,4.1923,3.9003,5.8291c0.6905,0.6696,1.3372,1.3026,1.866,1.9401
	c0.0758,0.5184,0.2057,1.349,0.2795,1.7904l0.0898,0.5371l0.8367-0.2139c0.3566,0.9176,1.0158,1.5588,1.9767,1.9048
	c0.9152,2.2509,2.5359,4.2701,4.8242,6.0089l0.3209,2.1927l0.9388-0.1071c0.594,1.0762,1.5178,2.579,2.8756,2.7906
	c2.8579,4.5209,5.816,7.8407,9.0307,10.1372l-0.0858,2.4761l0.9883-0.4161c0.5043,1.1678,1.3126,1.5701,2.0034,1.6774
	c2.3782,3.1813,5.307,5.9813,8.1475,8.686c2.1211,2.0186,4.3145,4.1074,6.249,6.333l1.4751,0.7246
	c0.504,0.2302,1.0093,0.4607,1.3696,0.6273c0.7999,0.8459,1.5941,1.7632,2.3624,2.653c2.4732,2.865,5.0333,5.8221,8.5613,7.3947
	l0.369,0.3798l-0.1104,0.0137l0.8184,0.7148l0.166,0.1709l0.0276-0.0034c21.6829,18.9097,41.921,33.2003,61.8632,43.681
	c5.7303,4.354,12.6385,8.1017,19.9855,10.8445c3.7516,3.2809,9.1859,5.2284,13.1002,6.2826l0.1051,0.0283l1.6281,0.7826
	c0.1224,0.2451,0.2723,0.4681,0.4614,0.6566l-0.1599,0.4221l0.3243-0.2715c0.9385,0.7979,2.4208,1.0723,3.4931,1.2695l0.0143,0.0027
	c1.0187,1.8065,3.8064,1.9719,4.6761,1.9719c0.1368,0,0.2665-0.0057,0.3962-0.0115c0.3061,0.1515,0.7339,0.3568,1.1458,0.5544
	l0.673,0.3245l0.2958,0.8337l0.2417,0.0732c1.9824,0.5996,3.9492,1.4541,5.8511,2.2813c2.8218,1.2261,5.7386,2.4889,8.8248,2.988
	c0.1474,0.1143,0.2964,0.2406,0.4531,0.3792c0.5801,0.5117,1.3018,1.1494,2.187,1.1494c0.1071,0,0.2092-0.0267,0.3136-0.0447
	c0.3711,0.1566,0.743,0.3179,1.1166,0.4812c2.2189,0.9677,4.5128,1.9623,7.0227,2.0293l0.1736,0.1084
	c2.3003,1.3389,4.9077,2.8564,7.7192,2.8564c0.2847,0,0.5651-0.0188,0.8363-0.0488l-0.1151,0.7559l0.5117,0.0615
	c1.1802,0.1426,2.3623,0.5732,3.5059,0.9893c1.4688,0.5342,2.9878,1.0869,4.5947,1.0869c0.1718,0,0.3421-0.0115,0.512-0.0242
	l-0.2141,0.8318l0.5444,0.085c2.9517,0.46,5.8652,1.3535,8.6826,2.2168c2.9481,0.9042,5.995,1.823,9.142,2.2871
	c0.0291,0.1626,0.0935,0.2891,0.1607,0.3799c0.3159,0.4277,0.9189,0.4824,1.4087,0.4824c0.4575,0,0.9956-0.0586,1.5161-0.1143
	c0.4971-0.0537,1.0107-0.1094,1.4189-0.1094c0.224,0,0.3693,0.0172,0.4672,0.0375c1.1334,1.4573,3.7653,1.6975,6.1129,1.9
	c0.6155,0.0525,1.1861,0.1073,1.7042,0.1766l0.1512,0.8546l0.3682,0.041c4.7476,0.5215,9.5464,1.4453,14.187,2.3369
	c7.1592,1.377,14.562,2.8008,21.9941,2.8008c0.4157,0,0.8334-0.0092,1.2508-0.0179l0.1252,0.8773l0.4063,0.0254
	c3.605,0.2246,7.2686,0.5186,10.812,0.8027c5.3859,0.4326,10.9462,0.873,16.4412,1.0874l-0.0042,0.0122l0.6685,0.0183
	c0.0019,0.0001,0.0039,0.0002,0.0058,0.0002l0.3716,0.0127l0.0013-0.004c6.0137,0.1604,12.2068,0.2394,18.9235,0.2394
	c7.8011,0,16.0469-0.1041,25.9411-0.3265c0.6259,0.2079,1.1546,0.3177,1.596,0.3177c0.7745,0,1.305-0.3519,1.5416-0.9559
	c3.9318-0.0179,7.9084-0.1531,11.8304-0.4124l0.1744,0.0265l0.8584-0.7339c0.4595,0.0181,0.9181,0.0298,1.375,0.0298
	c1.4004,0,2.8145-0.0732,4.1816-0.1436c0.8115-0.042,1.6265-0.084,2.4482-0.1123c0.0496,0.0039,0.0936,0.0015,0.1422,0.0042
	c0.0796,0.0045,0.1567,0.0055,0.2338,0.0068c0.178,0.0029,0.347-0.0045,0.5087-0.0203c0.0425-0.0043,0.092,0.0004,0.1335-0.0054
	c0.6211,0.2109,1.1392,0.3135,1.5801,0.3135c0.7743-0.0007,1.3052-0.3553,1.5427-0.9645l0.074,0.0006
	c3.1309,0,6.2734-0.3936,9.313-0.7744c1.7329-0.2178,3.5244-0.4414,5.2886-0.5898l0.4385-0.0361l0.0403-0.9275
	c0.9966,0.3168,2.2984,0.5857,3.4475,0.5857c2.0048,0,2.816-0.7693,3.1289-1.5414c3.3956-0.0355,6.8383-0.4281,10.2429-1.1833
	c0.3278-0.0383,0.6749-0.0675,1.0325-0.0966c1.7072-0.1421,3.6245-0.3119,4.8488-1.4945c0.2505,0.0099,0.5009,0.0189,0.7503,0.0189
	c3.082,0,6.1074-0.7197,9.0337-1.415c1.333-0.3174,2.7114-0.6455,4.0664-0.8975l0.4985-0.0918l-0.1733-0.8668
	c0.6921,0.0863,1.3969,0.1451,2.084,0.1451c1.9528,0,4.4963-0.3666,5.8383-2.0028c0.2006,0.006,0.4011,0.0126,0.6031,0.0126
	c4.253,0,9.4454-1.4153,14.2617-3.8817c0.4137-0.0631,0.9238-0.1047,1.4839-0.1495c2.1467-0.1699,5.0079-0.4036,5.5083-2.1614
	c0.3958,0.0465,0.8035,0.0784,1.231,0.0784c3.0261,0,6.624-1.1758,8.8308-2.8676c2.9827-0.1727,6.2346-1.2323,8.9712-2.9258
	l0.3625-0.0573c2.6792-0.4191,5.9816-0.95,7.7452-2.991c1.5237-0.0914,2.8225-0.4204,3.9169-1.0012
	c2.4067-1.0137,4.9414-1.9404,7.3931-2.8369c5.3461-1.9546,10.8712-3.9783,15.6417-7.0807c2.4464-0.2296,5.5245-1.1913,7.1066-3.215
	c0.4922-0.2064,1.3083-0.5496,1.7922-0.7557c0.0577,0.0018,0.1156,0.0045,0.1729,0.0045c1.8125,0,3.3613-0.8242,4.8589-1.6211
	c0.3447-0.1836,0.6885-0.3662,1.0908-0.5713c1.6484-1.1123,3.6538-1.9463,5.5938-2.7529c2.7017-1.1229,5.4885-2.2885,7.4487-4.244
	c2.87-0.6105,4.9092-1.6428,6.0811-3.0664c0.137,0.0157,0.2661,0.0419,0.4141,0.0419c1.739,0,4.137-1.1007,4.4645-2.9202
	c3.6964-0.9314,7.5778-3.0454,10.9811-6.0011c0.6099-0.2911,1.3582-0.5336,2.1541-0.7877c1.9883-0.6366,4.208-1.3677,5.0337-3.2018
	c1.4888-0.0598,2.7109-0.9021,3.8911-1.726c0.6655-0.4639,1.2944-0.9023,2.0239-1.2295c2.7695-1.8301,5.6724-3.6191,8.4795-5.3486
	c6.3252-3.8981,12.8636-7.9292,18.4724-12.7814c0.9977-0.2548,1.7052-0.8993,2.0925-1.8666
	c0.4442-0.1067,1.072-0.2603,1.4189-0.3452l0.1289-0.0313l0.0957-0.0908c2.1968-2.082,4.7012-3.9375,7.1235-5.7305
	c2.8234-2.0914,5.7405-4.2549,8.2009-6.7963c0.8635-0.4373,1.5225-1.1211,1.9576-1.9976c1.9069-0.1617,3.5774-1.5908,5.089-4.3608
	c0.0205,0.0005,0.0405,0.0062,0.061,0.0062c0.9507,0,1.7617-0.6084,2.4775-1.1465c0.1899-0.1426,0.375-0.2822,0.5537-0.4014
	l0.0811-0.0674c1.8638-1.9141,3.9619-3.6797,5.9907-5.3877c3.0464-2.5643,6.1858-5.2191,8.6519-8.4559l0.0879,0.0624l0.1672-0.3381
	c2.7749-0.774,4.7323-3.1254,6.6199-5.4138c0.7368-0.8942,1.4365-1.7325,2.1625-2.4584c2.8259-0.2557,4.5228-3.1719,5.0729-4.2965
	c2.2659-1.1495,4.0137-3.2133,5.7012-5.2178c0.7388-0.8771,1.4458-1.7064,2.2286-2.5146c2.7526-0.3737,4.5477-2.7928,6.1302-4.9463
	c0.3234-0.4408,0.6367-0.8646,0.9473-1.2566c1.5332-0.6061,2.6692-1.9796,3.2799-3.1791c1.1897-0.2078,2.0081-1.3695,2.7328-2.4149
	c0.3196-0.4611,0.6235-0.8872,0.9326-1.2136c3.1663-0.7135,5.4404-3.7378,7.2725-6.1809c0.2673-0.3569,0.526-0.7008,0.7795-1.0281
	c3.6279-2.5903,6.85-6.1022,9.9651-9.5012c1.0374-1.1323,2.0642-2.2527,3.0908-3.3212c0.8427-0.7654,1.7151-1.5448,2.5986-2.3341
	c3.1304-2.7969,6.364-5.6871,8.9045-8.5063c2.7073-1.3795,4.7893-3.96,6.4725-6.3328c0.1761-0.1143,0.3658-0.2295,0.5682-0.3494
	c1.0009-0.5933,2.2136-1.3259,2.4053-2.5543c0.8845-0.4058,1.5823-1.0562,2.0447-1.9087c2.7166-0.7083,4.4922-2.9312,6.0669-5.1759
	l0.8904-0.8903c1.189-0.2985,1.8879-1.3424,2.5039-2.2765c0.1421-0.2156,0.288-0.4298,0.4446-0.6464
	c0.3628,0.0049,0.7261,0.0087,1.0906,0.0087c0.6934,0,1.3933-0.0114,2.0959-0.0261l0.3015,0.6755l0.2285,0.0625
	c2.4004,0.6572,4.793,1.6494,7.1064,2.6094c3.6858,1.5298,7.4941,3.0933,11.5249,3.4144l-0.1919,0.8033l0.4854,0.1172
	c2.6709,0.6455,5.3193,1.584,7.8789,2.4912c2.9402,1.0424,5.979,2.1167,9.1025,2.7719c1.193,0.723,2.4362,1.3521,3.6194,1.9347
	c0.2805,0.5198,0.7191,1.363,0.991,1.8861c-0.21,2.0465,0.8792,3.6604,1.9443,5.2189c0.832,1.2188,1.6182,2.3701,1.8379,3.7207
	l0.0195,0.1221l0.0742,0.0986c0.2148,0.2842,0.3467,0.8252,0.4736,1.3477c0.2268,0.9302,0.5071,2.0573,1.4615,2.3204
	c0.0715,0.2461,0.1429,0.4918,0.2123,0.744c0.4264,1.5461,0.8748,3.1378,1.938,4.3558c-0.2537,0.7135-0.4851,1.4612-0.6873,2.2358
	l-0.2908,0.2589c-0.3359,0.3007-0.7307,0.6532-0.9839,0.8737c-6.5115,3.2661-13.1918,9.765-17.4495,16.9814
	c-4.4348,6.8176-8.7131,14.1249-8.4783,22.0262l-0.8911-0.1528l-0.0791,0.5c-1.5918,10.1025-1.3486,20.4854-1.1123,30.5254
	c0.1045,4.4635,0.2117,9.0778,0.1569,13.6001c-1.2346,1.9388-1.7468,4.1945-1.5383,6.7113
	c-0.1649,0.0454-0.3142,0.1282-0.433,0.2638c-0.4736,0.541-0.373,1.5898-0.1514,3.2529c0.0646,0.4814,0.1259,0.9628,0.1464,1.3446
	l-0.8583-0.1464l-0.0879,0.4873c-0.4648,2.5703-1.4121,5.0615-2.3291,7.4697c-0.6648,1.7478-1.3494,3.5551-1.8552,5.395
	c-0.3337,0.3787-0.692,0.7517-1.0569,1.1284c-1.3059,1.3446-2.6451,2.7388-3.0586,4.6434
	c-1.6688,1.1627-3.0635,2.6843-4.4072,4.1652l-0.6704,0.7344c-1.3036,0.8018-2.7859,1.5104-4.2212,2.1943
	c-2.2838,1.0898-4.6357,2.2214-6.439,3.79c-1.3011,0.208-2.545,0.64-3.7476,1.0625l-0.6426,0.223
	c-3.2417-0.5908-6.2039-0.2003-8.6667,1.1588c-2.5902,0.2777-5.02,2.6195-6.0198,4.8699c-0.7192,0.1057-1.4065,0.5256-1.96,1.2473
	c-0.8474,1.1036-1.2535,2.6967-0.999,3.8473c-0.6973,3.7264,0.3772,7.3127,1.4229,10.7816
	c0.2422,0.8027,0.4824,1.6025,0.7002,2.3994l0.1279,0.4678l0.7759-0.1864c0.212,2.2482,1.0552,8.4105,3.9688,10.673
	c0.004,2.4596,0.6329,6.8444,2.9812,8.0524c-0.2952,1.7983,0.4431,3.3647,1.1726,4.879c0.46,0.9561,0.8955,1.8604,1.0859,2.8203
	l0.0469,0.1328c0.2803,0.5391,0.4502,1.2148,0.6299,1.9316c0.3182,1.2648,0.6858,2.6791,1.8027,3.452
	c0.1096,1.4779,0.3737,3.8843,1.974,5.0074c0.1412,0.4998,0.2391,1.0862,0.3365,1.7144c0.2454,1.5835,0.5344,3.3542,1.761,4.2482
	c0.0554,0.5441,0.1007,1.0995,0.1423,1.6678c0.1855,2.514,0.3899,5.1052,1.8328,7.2539c0.0325,0.3621,0.0292,0.7534,0.0237,1.1699
	c-0.0201,1.2987-0.026,2.7532,1.2107,3.7443c0.0369,0.3058-0.0571,0.8827-0.1414,1.368c-0.1826,1.0605-0.3545,2.0625,0.1338,2.6426
	c0.1411,0.1685,0.4298,0.3464,0.8516,0.3639c0.0215,0.4111-0.0273,0.9319-0.0771,1.4427c-0.1152,1.1924-0.2344,2.4248,0.3857,3.1582
	c0.1838,0.217,0.4326,0.348,0.71,0.4391c-0.0017,0.3148-0.0225,0.6543-0.0547,1.0219c-0.1149,1.2914-0.2385,2.8702,0.9595,3.7552
	c-0.0969,2.9606,0.2483,5.9177,0.5903,8.7789c0.3704,3.0925,0.7456,6.2854,0.5483,9.4541h-0.0015l-0.0242,0.4545l-0.0442,0.5485
	l0.0237-0.0007c-0.1555,3.3596-0.1074,6.6359-0.0491,10.0916l0.0449,2.8818h0.96c-0.0341,3.8768,0.0282,7.2299,0.4063,10.7725
	h0.0005c0.1582,1.8956,0.6401,3.8359,1.106,5.7119c0.2578,1.0361,0.5244,2.1084,0.7305,3.1523l0.1367,0.6973l0.7151-0.4286
	c0.0598,0.2179,0.1188,0.428,0.1794,0.6532c0.9202,3.3953,2.0649,7.6047,4.8571,9.3199c0.5615,0.7651,0.4574,2.2338,0.3529,3.6586
	c-0.1152,1.5693-0.2246,3.0508,0.5371,3.8701c0.2583,0.2787,0.594,0.4536,1.0005,0.5251c0.036,0.8417,0.0972,2.0458,0.131,2.7163
	c-0.349,3.386-0.1322,6.6301,0.099,10.0623l0.0703,1.047l-0.002,0.0155l0.0088,0.0635c0.0381,0.2803,0.0605,0.6123,0.0859,0.9688
	c0.1035,1.4722,0.2594,3.4318,1.5996,4.0306c0.6782,2.8301,2.6968,6.4469,5.052,7.8832c0.3857,0.5474,0.7976,1.0826,1.2146,1.6184
	c1.4834,1.9102,2.8848,3.7129,3.0742,6.1406l0.04,0.5195l0.7305-0.0876c-0.333,1.9895,0.3511,3.8346,1.0225,5.6248
	c0.2676,0.7139,0.5449,1.4531,0.7432,2.1777l0.0771,0.1592c0.6719,0.9336,0.7979,2.6123,0.9189,4.2363
	c0.1819,2.4319,0.3904,4.9246,2.3267,5.8279c0.1238,0.4489,0.4116,1.1945,1.1157,1.1936c0.4771,0,0.9272-0.3766,1.438-1.174
	l0.8794-0.2762l0.0918-0.2051c3.9869-8.8683,5.3452-19.3683,4.0392-31.2089c0.0677-0.3364,0.1693-0.8588,0.2502-1.2853h0.1647
	l-0.0388-0.2596c0.5042-0.3274,0.9115-0.7616,1.207-1.3119c0.8035,0.8369,2.0671,1.2015,3.1345,1.5032
	c0.2092,0.0586,0.4055,0.1182,0.6014,0.1779c0.5374,1.4465,2.015,2.0325,3.3572,2.097c1.5541,1.6062,4.2167,3.4586,6.9335,3.7314
	l0.2397,0.2573c0.1609,0.1707,0.3213,0.3422,0.4546,0.4877c0.0428,0.6313-0.103,1.5671-0.2524,2.486
	c-0.2939,1.8184-0.5732,3.5361,0.1816,4.4219c0.2021,0.2383,0.5791,0.5225,1.2217,0.5225c0.3633,0,0.7734-0.0869,1.2539-0.2646
	l0.1299-0.0479l0.0869-0.1084c0.3525-0.4414,0.6504-0.9531,0.9375-1.4492c0.688-1.1862,1.296-2.2075,2.562-2.3213
	c0.6956,0.9152,1.321,1.923,1.9224,2.9063c0.8789,1.4399,1.7925,2.9236,2.9788,4.1851c0.3774,2.3962,2.4092,4.5956,3.7937,5.8453
	c-0.0828,1.5659,1.1301,2.379,2.2373,3.0125c0.1372,1.5475-0.455,2.918-1.0889,4.3624c-0.3848,0.8757-0.7706,1.7803-0.9988,2.739
	l-0.0247-0.031l0.0009,0.131c-0.0016,0.0074-0.0035,0.0149-0.0052,0.0223c-1.6848,0.7286-1.1956,3.1633-0.7573,5.3281
	c0.2783,1.375,0.5938,2.9336,0.1904,3.4785l-0.2051,0.2764l0.1846,0.291c0.5166,0.8076,0.9287,1.7607,1.3652,2.7705
	c0.9906,2.2885,2.026,4.6401,4.4153,5.6422c0.3154,0.8663,0.6302,1.7494,0.9458,2.6648c-0.2788,2.8519-0.2908,5.5934-0.0356,8.8536
	c-0.2205,2.2557-1.1282,4.2855-2.0911,6.4341c-0.9067,2.0234-1.8396,4.1162-2.1296,6.3955
	c-0.8516,0.9272-1.1578,2.0922-0.8987,3.4717l0.1523,0.8115l0.6484-0.5107c2.7544-2.1665,6.5156-5.1315,8.2317-9.0809
	c0.1907-0.2456,0.5066-0.6659,0.7219-0.9542c1.5282-0.415,2.2114-1.9146,2.7573-3.1416c0.165-0.3691,0.3223-0.7246,0.5186-1.0771
	c0.1982-0.458,0.4033-0.917,0.6094-1.3779c1.3484-3.017,2.7275-6.1365,2.4607-9.587c1.1046-0.901,1.0397-2.3759,0.9709-3.6932
	c-0.021-0.4026-0.0283-0.7743-0.0146-1.1222l0.959,0.0558l-0.0791-0.5996c-0.458-3.4541,0.7227-6.4395,1.9727-9.6006
	c0.396-1.0016,0.8044-2.0376,1.1536-3.0806c2.0559-3.6758,2.8589-8.1278,3.6326-12.4351c0.3259-1.8173,0.6702-3.683,1.0957-5.4355
	l0.0508-0.0049l0.0334-0.3716l0.1638-0.6519l-0.1223,0.0142c0.1708-2.3591,0.1331-4.778,0.0862-7.1265
	c-0.0176-0.9139-0.031-1.8126-0.0359-2.7028l0.1794-0.015l-0.1855-0.5287v-0.4586l-0.1821,0.0151
	c-1.4103-3.6196-4.5483-6.411-7.7654-8.8815l-0.3552-0.33c-0.208-0.1915-0.4215-0.3893-0.5923-0.5502
	c-0.1375-1.91-1.5682-3.625-4.267-5.1011c-0.3268-1.1467-1.0165-1.9376-2.0597-2.3512c-1.0859-1.6035-3.1396-2.2361-5.1357-2.8413
	c-1.0251-0.3107-1.9927-0.6042-2.8004-1.0155l-1.9-1.0342c-0.6697-1.1827-1.7285-1.9081-2.7654-2.5988
	c-0.7041-0.4697-1.3701-0.9131-1.8525-1.4287c-0.3662-0.54-0.7031-1.1016-1.04-1.6631c-0.6143-1.0219-1.254-2.0734-2.0596-2.9937
	c-0.069-1.5618-1.1525-2.5416-2.124-3.4038c-0.3447-0.3076-0.6709-0.5967-0.9648-0.9209
	c-6.5742-6.6416-9.2979-15.3301-10.4238-21.4492l-0.0488-0.2637l-0.834-0.3561c0.0199-2.8228-0.5623-5.6311-1.1328-8.351
	c-0.3843-1.8314-0.7773-3.7249-0.9948-5.6719c0.5175-2.8408,0.4371-5.8635,0.2448-8.7437l0.085,0.0034l-0.1243-0.5928l-0.03-0.415
	l-0.0439-0.0018c-0.7169-3.58-1.0079-7.4604-0.8438-11.5568l0.0205-0.5303l-0.0107,0.0002
	c0.1941-6.8024,0.0486-13.6234-0.1322-20.0734l1.0463,0.2645l0.0068-0.6357c0.1038-9.939,0.8625-18.9642,2.3052-27.5695
	l0.7124,0.3741l-0.0176-0.8408c-0.0586-2.7324,1.0098-5.1553,2.1416-7.7197c0.7114-1.6125,1.439-3.2816,1.8647-5.066
	c2.8198-3.13,4.6313-7.5973,6.3813-11.9222c0.5251-1.2969,1.0249-2.5209,1.541-3.6952l0.0615,0.0057l0.0715-0.2789
	c2.0748-2.127,5.428-6.106,5.7693-9.8627c1.7939-1.02,3.2684-3.0435,4.4949-6.184c1.6102-1.0355,2.5525-2.797,3.4592-4.5074
	c0.6807-1.2852,1.3232-2.499,2.2197-3.4072l0.1074-0.1631c0.4893-1.2002,1.3818-2.1973,2.3271-3.2529
	c1.2097-1.351,2.4501-2.7511,2.7737-4.6128c1.8098-1.4816,4.8015-4.3617,5.8992-7.9031c1.2715-0.7822,2.121-1.9392,2.9307-3.071
	c0.5474-0.7645,1.0739-1.485,1.7134-2.0934c4.0278,0.9856,8.085,2.3169,12.0103,3.61c5.01,1.6506,10.1877,3.3506,15.4205,4.3723
	l0.1078,0.8777l0.3242,0.0879c3.293,0.8936,6.5479,2.2051,9.6953,3.4746c3.2583,1.3131,6.6257,2.6637,10.0547,3.5653
	c0.6696,1.8242,2.8464,2.4684,4.9736,3.0773c1.1493,0.3293,2.2355,0.6418,2.9985,1.1172c2.8835,2.5449,6.6511,3.9163,10.0183,4.9867
	c0.292,1.8428,2.7078,2.9586,4.4705,2.9586c0.1733,0,0.3269-0.0273,0.485-0.049c4.9575,3.839,11.0483,6.7339,16.9193,9.2869
	c0.6781,1.282,1.6794,1.9642,2.9141,1.9642c0.0935,0,0.197-0.0195,0.2947-0.0275c1.8657,3.5608,6.6453,5.0793,11.1218,6.0873
	l1.7075,0.7393c0.7799,1.1938,2.1816,1.781,4.291,1.781c1.501,0,3.1768-0.2793,4.7969-0.5498
	c2.0625-0.3457,4.0557-0.6367,5.1895-0.3779l0.8662,0.1973l-0.4084-1.2222c0.6331,0.0161,1.3601,0.1113,2.1262,0.2104
	c0.9189,0.1182,1.8682,0.2402,2.75,0.2402c0.6199,0,2.4075-0.0187,3.2532-1.407c0.2323,0.0077,0.4644,0.0164,0.698,0.0164
	c2.1328,0,4.3164-0.3066,6.4297-0.6035c2.1025-0.2949,4.2773-0.6006,6.3887-0.6006l0.0912,0.0011l0.0856,0.079l0.1973-0.0757
	l1.0192,0.012c0.3159,0.167,0.606,0.4742,0.933,0.8342c0.5452,0.5999,1.219,1.3289,2.246,1.5195
	c1.8297,2.5156,4.766,4.1367,7.5499,4.1367c0.7261,0,1.4397-0.1145,2.125-0.3251l0.1055-0.004c0.8662,0,1.6113,0.4795,2.4004,0.9883
	c0.8311,0.5361,1.6914,1.0898,2.7441,1.0898c0.0435,0,0.092-0.0035,0.1393-0.0062c2.1827,2.4559,5.1954,4.1584,8.1185,5.7992
	l0.5811,0.3282l-0.082,0.2147l0.3644,0.0325c0.5319,1.1907,1.3893,1.5769,2.0992,1.6654c1.116,1.016,2.6033,1.1595,3.7932,1.1595
	c0.1807,0,0.3604-0.0029,0.54-0.0078l0.7178-0.0205l-0.2676-0.666c-0.1279-0.3184-0.2139-0.7646-0.3047-1.2363
	c-0.2114-1.1022-0.4763-2.4375-1.5154-2.8496l-0.217-2.1729l-1.0115-0.0555c-1.4636-4.3043-4.1672-8.0371-6.7922-11.6466
	c-1.1519-1.5829-2.3413-3.2206-3.3966-4.8689l-0.0546-0.176c-0.4941-1.5986-1.0518-3.4043-2.5508-4.4414
	c-0.627-1.3779-1.9443-1.873-3.1104-2.3115c-1.4128-0.5309-2.2874-0.9287-2.3846-2.198l0.3373-1.4969
	c4.3005-2.2194,7.5549-5.9563,10.6987-9.5804c0.7981-0.921,1.5889-1.8315,2.3884-2.7068c2.3851-0.9652,3.837-3.6045,4.8357-5.8516
	l1.1615-1.1683c2.1182-1.666,4.9364-2.257,8.3275-1.7555l0.114,0.1091l0.171-0.0702l1.4384,0.2255l-0.6218-0.5953
	c0.2861-0.1322,0.5745-0.257,0.8591-0.3959c0.5811-0.2822,1.1787-0.5742,1.7891-0.8066c0.7168,0.6719,1.3926,1.4336,2.0469,2.1729
	c1.6267,1.8364,3.3142,3.7234,5.838,4.5439c0.9233,2.0608,3.1304,2.082,4.2235,2.082c0.002,0,0.0049,0,0.0068,0
	c0.2346,0,0.4701-0.0057,0.7046-0.0111l0.0122,1.184l0.6777-0.2715c1.1719-0.4688,2.3486-0.6963,3.5977-0.6963
	c2.312,0,4.5088,0.7778,6.8446,1.6202c1.6488,2.097,4.2362,3.4216,6.7472,4.6991c0.8701,0.4426,1.6919,0.863,2.4755,1.3116
	l0.0065,0.0096l-0.1167-0.0127l0.7639,0.9747l0.0828,0.1229l0.0149,0.0016l0.3953,0.5043c1.4343,1.8585,3.062,3.9515,5.7288,4.5125
	l1.0967,0.9786c-0.0497,0.3862,0.035,0.7539,0.2566,1.0597c0.3154,0.4365,0.8604,0.6973,1.459,0.6973
	c0.8096,0,1.4746-0.4736,1.7354-1.2344l0.0605-0.1748l-0.0684-0.1719c-0.2676-0.6729-0.4971-1.3945-0.7412-2.1592
	c-0.7018-2.2051-1.4355-4.4763-3.1592-5.8684c-2.6089-9.3104-10.5494-16.4304-16.9558-22.1586
	c-1.3099-1.8741-2.6438-3.1945-4.0701-4.0421c-0.9922-1.7827-2.7603-2.8274-4.4771-3.8333
	c-0.5342-0.313-1.0315-0.6139-1.5105-0.9296c-0.1429-1.0988-1.1143-1.6663-1.9153-2.1251
	c-0.0574-0.0327-0.1069-0.0652-0.1632-0.0977c2.4073-0.3137,5.004-0.688,7.1447-1.7402l0.2949,0.0527l-0.1404-0.13
	c0.6423-0.329,1.231-0.735,1.7682-1.2091c1.5862,0.266,2.4562,1.5934,3.3673,3.0071c0.3584,0.5566,0.7295,1.1318,1.165,1.6572
	l0.1045,0.1123c2.2039,2.3792,4.9401,5.326,8.6094,5.4039c0.3247,0.6134,1.092,0.9281,2.3018,0.9281
	c2.7819,0,7.3613-1.6122,8.2903-1.9498c0.3796,0.0714,0.7368,0.1139,1.0525,0.1139c1.3276,0,1.9277-0.6218,2.1987-1.2571
	l0.9404-0.0594l-0.0024,0.1476l0.603-0.1855l0.4009-0.0254l0.0017-0.0985l0.2737-0.0842l0.4346,0.2218
	c2.4207,1.2401,4.9221,2.5135,7.572,3.0001c0.605,1.4347,2.0265,2.233,3.4143,2.9979c0.7356,0.4055,1.4268,0.7909,1.9839,1.2554
	l0.0601,0.0903c1.4521,2.1844,3.4294,5.1411,5.6677,6.6202c0.2705,1.6804,2.1097,3.204,3.9739,3.204
	c0.1133,0,0.2256-0.0059,0.3379-0.0176l0.5879-0.0605l-0.3672-1.335c-0.7915-2.907-1.6938-6.1862-3.7639-8.4377l-0.1511-2.2498
	l-0.863,0.2535c-2.5913-6.0337-6.6858-11.1074-11.5874-14.3181c-2.4001-2.6776-6.0461-4.4863-9.2683-6.0819
	c-0.4319-0.214-0.8582-0.4253-1.2778-0.6366c-1.5945-1.8029-3.8347-2.9622-6.0044-4.0802c-1.5352-0.79-3.1221-1.6084-4.4355-2.6475
	c-3.5127-2.5146-8.168-5.4004-13.0283-5.4004c-1.7078,0-3.3386,0.3746-4.856,1.0995c-2.979-0.2695-5.6716-0.2284-8.1279,0.121
	l-0.0181-0.0115l-0.2024,0.0375l-0.5542,0.0823c-1.4573-0.2944-3.0437-0.441-4.8499-0.441c-1.2686,0-2.6584,0.0732-4.3391,0.2236
	l-0.0437-0.0381l-0.2141,0.0601l-1.1345,0.105l0.2217,0.1898c-4.4546,1.4432-8.824,4.2162-12.1194,7.7361
	c-0.2996,0.1779-0.641,0.3463-0.9949,0.5204c-1.1812,0.5814-2.4965,1.2374-2.9419,2.4803
	c-1.9385-0.0035-3.7157-0.7612-5.5698-1.5653c-1.6221-0.7041-3.2998-1.4316-5.1299-1.6113l-0.0898-0.0088l-0.0869,0.0234
	c-1.4326,0.3799-2.915,0.5654-4.5332,0.5654c-3.2871,0-6.6172-0.7861-9.8369-1.5459c-1.0801-0.2549-2.1563-0.5088-3.2295-0.7344
	l-0.0566-0.0117l-0.0198,0.0004c-1.7444-0.2498-3.6797-0.3715-5.9187-0.3715c-1.7468,0-3.4478,0.0697-5.3152,0.1553
	c-0.8208-0.5585-1.7134-0.8795-2.6746-0.9634c-1.2961-1.9388-4.4592-2.0198-6.8645-2.0408l0.4158-0.9138l-0.8037,0.0244
	c-2.4492,0.0771-4.9023-0.2471-7.2754-0.5586c-2.5436-0.3333-5.1753-0.675-7.8185-0.5334
	c-0.8813-0.6025-2.0345-1.2537-3.3475-1.2537c-0.1233,0-0.248,0.0068-0.382,0.0215c-0.5812-0.9803-1.9025-1.2189-3.1893-1.4453
	c-0.9111-0.1602-1.8525-0.3252-2.4268-0.7451l-0.1143-0.0615c-4.0234-1.5625-8.0791-3.3262-12.002-5.0313
	c-5.2649-2.2896-10.7073-4.6512-16.1311-6.5573c-0.7839-1.4635-2.2307-1.954-3.5173-2.3832
	c-0.3232-0.1084-0.6455-0.2158-1.0039-0.3525c-2.8564-0.8135-5.46-2.5283-7.9775-4.1875c-2.311-1.5236-4.7015-3.0917-7.2556-3.9315
	c-0.8063-1.5403-1.7947-2.2891-2.9492-2.2517c0.2615-0.8341,0.7249-1.5961,1.2185-2.39c0.5225-0.8401,1.0503-1.7136,1.3523-2.7271
	c2.7666-1.2362,4.1501-5.7018,4.8499-8.1293c2.6299-0.5731,4.0066-4.5596,4.4092-5.9539l0.7007-0.9047
	c2.2283-1.0164,3.7913-3.8209,4.2194-6.1344c1.8615-0.6697,3.2411-2.4757,4.4598-4.0912c0.1985-0.2626,0.3906-0.5127,0.5822-0.7588
	h0.038l0.1259-0.2126l0.6261-0.7874h-0.1604c0.1511-0.2563,0.2988-0.5062,0.4364-0.7394c0.3655-0.099,0.8854-0.2335,1.2347-0.3231
	l0.2832-0.0732l0.1025-0.123c1.623-1.9365,3.5703-3.7188,5.4521-5.4414c3.297-3.0183,6.699-6.1429,8.6292-10.2847
	c2.0298-1.0382,3.926-2.9147,5.1323-5.0784c1.3414-0.5278,2.5367-1.6555,3.0952-2.9143c3.9635-1.1187,7.088-5.4707,9.0366-9.0006
	c2.2751-2.0188,3.5737-3.9495,3.9802-5.9191c1.8229-1.0675,2.3127-3.0566,2.7729-4.9924c0.2236-0.9404,0.4346-1.8281,0.791-2.5869
	l0.0449-0.1611c0.4409-4.2711,1.243-12.1594-3.4966-16.016c0.0151-1.5013-1.2158-2.1108-2.228-2.5983
	c-1.1797-0.5674-1.9004-0.9717-1.8623-2.0713l0.0068-0.2051l-0.1396-0.1514c-1.0205-1.1016-1.4219-2.4697-1.8457-3.918
	c-0.5469-1.8643-1.1113-3.791-3.0781-5.0723c-0.5371-1.4248-1.7422-2.1934-2.8096-2.876c-1.1592-0.7402-2.1611-1.3799-2.3701-2.6934
	l-0.0615-0.3828l-0.011-0.001c-0.3816-2.076-1.8046-3.719-2.8984-4.8005c-1.3712-1.7908-2.6143-3.8802-3.8162-5.9006
	c-1.7678-2.9744-3.597-6.0449-5.9385-8.38c-0.6062-2.4922-2.0994-5.0374-4.0359-6.8906c0.1484-1.6862-1.08-3.0343-1.9918-3.9683
	c-0.3217-2.1296-1.3263-6.8756-4.0531-9.1006c-1.1313-5.1099-3.4116-10.7997-5.325-14.7618l0.0161,0.0017l-0.4111-0.8203
	c-0.4072-0.8096-0.7256-1.8125-1.0342-2.7832c-0.5499-1.7307-1.1245-3.5087-2.2683-4.5756
	c-0.0986-2.8994-1.4094-5.3884-2.6877-7.7955c-1.1544-2.1727-2.2391-4.2389-2.4902-6.5616l0.9131,0.1808l0.083-0.5107
	c1.5791-9.6875,2.1992-19.6592,2.7988-29.3018c0.1602-2.5752,0.3193-5.1475,0.4971-7.7139l0.0371-0.5449l-0.9875,0.02
	c0.0188-1.1157-0.1309-2.2056-0.4575-3.2717c1.2491-1.2412,2.7651-2.3323,4.2429-3.384c2.2305-1.5883,4.5315-3.2334,5.9591-5.4562
	c6.4581-4.0249,12.4691-9.2587,18.2841-14.3231c2.1664-1.8871,4.2134-3.6692,6.2678-5.3789
	c1.5142-0.9216,4.9806-3.3022,6.2296-6.4005c0.0085,0,0.0175,0.0011,0.026,0.0011c2.6787,0,4.4658-2.293,6.042-4.3164
	c0.7134-0.9148,1.3907-1.7761,2.1135-2.424c0.8345-0.1051,2.2716-0.2952,3.0269-0.3983c14.1859-1.1917,28.795-3.2261,42.9241-5.1934
	c4.6638-0.6503,9.3186-1.2983,13.9536-1.916l0.0132,0.0029l0.1035-0.0205c5.0273-1.001,10.1943-1.751,15.1914-2.4775
	c4.8624-0.7059,9.8892-1.4364,14.7949-2.3979c4.9727-0.6185,10.0999-1.4067,14.906-2.1678l0.052,0.0082l0.123-0.0459
	c0.7725-0.2881,1.5439-0.4287,2.3613-0.4287c1.9785,0,3.8486,0.8232,5.8291,1.6953c0.9915,0.4364,2.0164,0.8713,3.0593,1.2109
	c0.1458,1.2751,1.7994,1.5415,2.9417,1.7158c0.4081,0.062,0.7896,0.1232,1.0721,0.2076c1.1122,1.6453,3.2737,2.3085,5.1964,2.8871
	c0.322,0.0967,0.6345,0.1912,0.9341,0.2883c3.3772,2.505,7.7961,4.6918,13.8904,6.8744c2.6943,2.3611,6.3121,3.796,9.8152,5.181
	c0.8003,0.3165,1.5908,0.6292,2.3562,0.9484l0.3098,0.1512c0.4836,0.2352,1.1394,0.5547,1.5188,0.748
	c0.3844,0.2726,0.7817,0.5747,1.1931,0.8877c1.873,1.4277,3.9951,3.0449,6.4092,3.0449c0.2131,0,0.4236-0.0369,0.6353-0.0627
	c1.1638,2.5449,4.2141,3.6473,7.1909,4.6995c1.3486,0.4756,2.6221,0.9258,3.6406,1.4893l0.0012-0.0016l0.031,0.024
	c5.2935,3.4468,10.7678,6.9962,16.8042,8.7792l-0.0366,0.881l0.2598,0.1514c5.6514,3.3018,11.793,5.8564,17.1406,8.0049
	c3.3193,1.0537,6.6201,2.3965,9.8115,3.6953c4.7677,1.9402,9.6973,3.9442,14.9152,5.0574l-0.0011,0.009
	c1.3193,0.2861,2.6924,0.4248,4.1963,0.4248c2.835,0,5.6943-0.5059,8.46-0.9951c1.9121-0.3389,3.8896-0.6885,5.8135-0.8594
	l0.1162-0.0244c0.8223-0.2793,1.5176,0.3076,2.2676,0.9678c0.3289,0.2899,0.6719,0.5808,1.04,0.814l0.2334,0.5288
	c0.1758,0.3618,0.3641,0.7509,0.5013,1.0403l-0.0013,0.0076l0.0708,0.1394l0.564,1.2034l0.0182-0.0641
	c0.1903,0.3712,0.3771,0.7333,0.5096,0.9852c0.9213,2.7596,2.2454,5.4214,3.5278,7.9949l0.031,0.0623
	c-0.0865,1.7256,1.0918,3.2562,2.4041,4.0995c0.1663,1.25,0.8411,2.6965,2.2534,3.2377v0.542l0.2539,0.1436
	c3.7754,2.1289,6,5.7119,8.3555,9.5059c2.2836,3.679,4.6558,7.4696,8.5562,9.7844c-0.0209,0.5,0.1411,0.8455,0.3091,1.0515
	c0.2891,0.3555,0.7402,0.5518,1.2695,0.5518c0.6289,0,1.2646-0.2891,1.6592-0.7539c0.3701-0.4355,0.5195-1.0068,0.4189-1.6123
	c-0.1504-0.8525-0.2979-1.709-0.4453-2.5693c-1.1307-6.5741-2.3042-13.3683-4.9519-19.5676
	c0.6079-2.2668,0.0872-5.6118-1.5115-6.9923c0.3645-1.9133-0.3608-2.8612-1.0845-3.3043c-0.1567-0.2783-0.2725-0.7635-0.3828-1.2432
	c-0.2451-1.0635-0.5498-2.3867-1.6875-2.3867c-0.0287,0-0.0598,0.0111-0.0891,0.0129l-0.9535-0.9272
	c-0.2281-2.5468-1.2321-4.9119-2.8702-6.8351c2.0292-0.8917,4.2737-1.1899,6.6863-0.865l0.2041,0.0323l0.1719-0.1348
	c0.1606-0.1265,0.4548-0.3676,0.6626-0.5396c5.6606-0.501,12.0481-1.4293,16.8951-4.3644c0.3981,0.1455,0.848,0.2379,1.3759,0.2379
	c1.6643,0,3.6771-0.7615,4.3955-1.9265c0.4626,0.0645,0.9226,0.1062,1.3691,0.1062c1.5385,0,3.6267-0.394,4.9448-2.1266
	l0.2886,0.0016l2.3779-0.0098c0.5874,0,1.1851,0.0084,1.8027,0.0259c0.1162,0.5415,0.2065,1.0995,0.292,1.6909
	c0.2727,1.8831,0.5635,3.825,2.0435,5.2955c0.752,2.6676,3.98,5.2598,6.6659,6.1099c0.4236,0.5211,0.7897,1.114,1.1715,1.745
	c0.7241,1.1984,1.4791,2.4279,2.6597,3.1454c0.589,0.9886,0.9658,2.2203,1.3599,3.5275c0.6022,1.9918,1.2346,4.0367,2.7141,5.2772
	c-0.228,0.7594-0.2166,1.3417,0.0662,1.7491c0.2598,0.374,0.6953,0.5635,1.2949,0.5635c0.3066,0,0.6523-0.0479,1.0596-0.1455
	l0.3135-0.0762l0.0605-0.3154c0.8557-4.4532,1.2566-8.687,1.2227-12.6154l0.0801,0.0148c0.2551,0.349,0.4839,0.7683,0.7197,1.2227
	c0.5295,1.0188,1.1301,2.1545,2.2722,2.588c0.3849,2.2151,1.4312,5.5521,2.7559,6.8851c0.1494,3.6902,0.6836,7.4156,1.2043,11.021
	l0.1467,1.0195c-0.321,0.5917-0.3413,1.2397-0.0178,1.8525c0.4736,0.8965,1.6016,1.5723,2.624,1.5723
	c0.6426,0,1.168-0.2676,1.4795-0.7539c0.5234-0.8145,0.3945-2.1211-0.3818-3.8857c1.9072-5.6204,2.493-11.7501,1.7466-18.2234
	l0.0015-0.01l-0.0088-0.0674c-0.5989-4.5092-1.4583-9.6569-4.0134-13.8387c0.0201-1.0029,0.021-5.6992-1.6072-7.0372
	c-0.0488-0.4661-0.0941-0.9591-0.1401-1.4775c-0.3071-3.4388-0.6857-7.6643-2.8369-9.479c0.0549-0.0656,0.1085-0.1294,0.165-0.1968
	c0.0942-0.1134,0.1885-0.2263,0.2775-0.3325c0.641,0.2598,1.3025,0.4731,1.9501,0.6694c1.1416,0.3457,2.2256,0.6748,3.1699,1.2852
	c-0.0605,0.1943-0.1279,0.3945-0.1973,0.5996c-0.4695,1.3889-1.088,3.2695,0.3958,4.4336c0.262,3.0082,1.4236,6.1445,3.9441,6.1445
	c0.1411,0,0.2917-0.0376,0.4385-0.0574c0.8723,1.7317,2.9458,2.3578,4.9717,2.95c1.5371,0.4492,3.126,0.9141,4.0518,1.8125
	c3.166,3.7881,4.8789,8.374,4.8242,12.9141l-0.0068,0.5654l0.8379-0.0929c-0.0083,0.5886-0.1071,1.3047-0.2119,2.0558
	c-0.2432,1.7344-0.4941,3.5283,0.3203,4.4648c0.3438,0.3945,0.8301,0.5947,1.4453,0.5947c0.335,0,0.7188-0.0615,1.1416-0.1807
	l0.3428-0.0977l0.0195-0.3555c0.0686-1.2158-0.0361-2.4088-0.3093-3.5929c0.0906-0.1981,0.2002-0.4352,0.3207-0.6945l0.1156,0.4749
	l0.504-1.7994l0.0575-0.1224l-0.0128-0.0524c2.2269-8.1132,0.6832-17.6815-4.1437-25.639
	c-0.7433-1.9495-1.5795-3.9467-2.3884-5.8789c-1.1904-2.8447-2.4229-5.7861-3.4189-8.7051l-0.0479-0.1396l-0.2588-0.2051
	c-3.1826-2.5148-6.4763-5.1039-10.5806-5.8396c-1.1986-1.842-3.6764-2.7468-5.8833-3.5393
	c-0.3711-0.134-0.7263-0.2629-1.0663-0.3925l-1.0919-0.4171c-2.9824-1.1533-6.0898-2.3447-9.3818-2.0342l-0.4883,0.0469
	l0.0691,0.8981c-3.6921,0.3849-7.043,2.9413-8.9149,5.1661l-2.3873,0.1252c-0.0548-0.1473-0.1328-0.3024-0.2708-0.4668
	c-0.8311-0.9893-2.9482-1.6533-4.4043-1.6533c-0.8135,0-1.4111,0.1943-1.7773,0.5771c-0.1199,0.1252-0.2046,0.2722-0.2668,0.4299
	c-2.1628-0.3593-4.0448-0.0233-5.4739,0.9969c-0.4003-0.0457-0.8091-0.0802-1.23-0.0802c-1.6982,0-3.3594,0.3662-4.9658,0.7197
	c-2.2393,0.4941-4.6621,0.9385-6.749,0.499l-0.4805-0.1016l-0.2485,1.0741l-1.9878,0.1689
	c-2.3368-0.2661-4.822-0.5262-7.2705-0.5262c-3.1025,0-5.7086,0.4302-7.9717,1.3041l-3.9395,0.0065
	c-10.3856,0-21.4398-0.1526-32.3789-1.9744l-0.7218-0.2433c-0.9591-1.1892-3.0878-1.8995-4.6844-1.8995
	c-0.3885,0-0.7386,0.0509-1.0634,0.1292c-3.1722-2.1322-7.1495-3.6229-10.9777-4.9594c-1.3911-2.0032-3.6616-3.1965-5.8662-4.3466
	c-1.2107-0.6313-2.3535-1.2305-3.3577-1.9512c-1.1538-1.5686-2.8204-2.9335-4.5906-4.374c-2.0344-1.656-4.1262-3.3646-5.5067-5.4741
	c1.4952-0.0389,2.8062-0.7731,4.0731-1.4897c0.1163-0.0658,0.2322-0.1294,0.3481-0.1945l-0.1479,0.5197l0.6504,0.0117
	c2.6475,0.0479,7.8662,0.125,10.6592,0.166l0.0146,0.0002c0.7036,0.8796,1.7483,1.2756,3.137,1.1582
	c1.4655,1.4158,3.5912,2.106,4.8345,2.4031c0.8984,0.9618,2.1875,1.4585,3.9141,1.5194c0.0175,0.2051,0.0811,0.3867,0.1965,0.5402
	c0.3486,0.4619,0.9941,0.4639,1.21,0.4639c0.001,0,0.002,0,0.0029,0c0.4658,0,1.001-0.0928,1.5195-0.1816
	c0.4854-0.085,0.9316-0.1711,1.2195-0.141l0.095,0.0082l0.3564,0.0635l0.0103-0.0217c1.2665,0.1241,2.5754,0.3187,3.8491,0.5159
	c1.8643,0.2878,3.7872,0.576,5.6865,0.6536c0.3391,1.1628,1.8718,1.2141,3.1357,1.2498c0.6914,0.0195,1.4063,0.0391,1.8398,0.2158
	l0.1152,0.0469l0.0027-0.0002c1.7192,0.7238,5.4155,1.7268,7.9211,1.7268c1.542,0,2.4434-0.3701,2.7568-1.1318
	c0.3867-0.9404-0.2617-2.2031-2.04-3.9736c-4.0953-6.1343-10.8518-9.7816-16.8333-12.9939
	c-2.823-3.549-7.7178-7.4906-13.2444-8.1819c-0.8079-1.1848-2.2539-1.6989-3.5444-2.1484c-0.5435-0.1882-1.0536-0.369-1.5061-0.5861
	c-0.1517-0.1567-0.3506-0.3577-0.5527-0.5592l0.3938-0.2112c4.4934-2.4622,10.0625-5.52,12.0071-10.5085
	c1.4622-0.5233,2.7729-1.7438,3.3569-3.1378c1.4821-1.0789,2.1133-3.0852,2.6663-4.8693c0.1252-0.4044,0.2483-0.7925,0.3765-1.1627
	c0.4088-0.3291,0.8539-0.4916,1.394-0.4916c0.5596,0,1.1582,0.1592,1.793,0.3281c1.1711,0.3125,2.4839,0.5321,3.5857,0.1063
	l0.4902,0.1855l0.9651,0.7296l0.137-0.0492c2.7053,0.3434,4.8069,0.7611,6.7195,1.3346c-0.2783,1.4011,0.825,2.3812,1.7393,3.1833
	c0.3828,0.3369,0.7441,0.6543,0.9932,0.9766l0.0947,0.0938c0.5537,0.417,1.1104,0.9033,1.6992,1.418
	c1.8018,1.5762,3.8401,3.3389,6.3821,3.4564l-0.2639,0.4606l0.5693,0.1982c1.5908,0.5527,3.2695,0.8008,4.8926,1.04
	c2.5283,0.373,4.915,0.7256,7.0029,2.1328l0.1123,0.0566c1.1074,0.3926,2.1221,1.0684,3.1963,1.7832
	c1.417,0.9431,2.8835,1.9089,4.6423,2.2065c2.2797,3.0841,5.7711,7.0737,10.1194,7.0737c0.0996,0,0.1992-0.002,0.2988-0.0059
	l0.6387-0.0273l-0.1797-0.6123c-0.124-0.4268-0.2451-0.8652-0.3691-1.3105c-0.7715-2.7805-1.6506-5.9218-3.7339-7.9144
	c-1.9436-5.8245-6.3621-11.6182-13.1335-17.2253c-0.2616-1.0547-1.2585-1.5961-2.1531-2.0721
	c-0.4028-0.2144-0.782-0.4203-1.0706-0.6514c0.1077-1.7571-2.3491-3.2709-3.4839-3.8728c-0.0122-1.8815-0.7108-3.807-2.1355-5.8682
	c0.1809-1.6775-0.8855-2.8007-1.8452-3.7913l-0.3584-0.3768c-0.3772-0.5162-0.7612-1.0531-1.1553-1.6036
	c-2.3962-3.3524-5.1062-7.1111-8.459-9.1934c0.4771-0.5559,1.2231-0.8015,2.2412-0.7427c0.5137,0.6445,1.1458,0.9741,1.9375,0.9741
	c0.6475,0,1.3086-0.2139,1.9482-0.4199c0.6117-0.1973,1.2302-0.3887,1.8032-0.3796c1.4751,5.2936,3.7578,8.6587,6.9312,10.2253
	c3.5127,2.332,7.5928,2.6133,11.5391,2.8857c3.1523,0.2169,6.4031,0.4546,9.2886,1.7491l-0.0366,0.0887l0.3302,0.0791
	c0.6007,1.3743,1.974,2.0164,3.203,2.5781c0.4031,0.1837,0.7805,0.3613,1.1294,0.5549c0.8784,1.9366,1.9331,3.8158,3.5824,4.7794
	c0.2192,1.9236,1.5914,3.5598,3.045,5.0702c-0.3188,1.6406,1.1021,2.6644,2.1738,3.4177c0.3076,0.2158,0.6064,0.4248,0.8564,0.6396
	l1.126,0.9658l-0.3115-1.4512c-0.1104-0.5088-0.0137-1.4219,0.0791-2.3047c0.1602-1.5244,0.3115-2.9648-0.3213-3.667
	c-0.145-0.1614-0.3203-0.2822-0.546-0.3461c-1.2531-10.3429-7.4921-20.5758-17.1898-28.1802l0.186-1.4816l-0.5979,0.7465
	c-0.2938-0.485-0.723-0.8738-1.2697-1.1752l0.2689-0.8652l-0.7549,0.4559c-1.0857-1.3346-2.3184-2.8187-3.988-3.5825
	c-1.3679-2.2222-3.3679-4.094-5.3069-5.9027c-1.3164-1.2285-2.6787-2.499-3.8037-3.8525l-0.084-0.0996l-0.1221-0.0469
	c-4.1846-1.6025-7.999-2.3809-11.6602-2.3809c-0.9711,0-1.9258,0.0708-2.8445,0.1813l0.1443-0.9293l-0.5479-0.0332
	c-2.5848-0.1595-5.3059-0.1127-8.3342,0.1348l-0.6006-0.0818c-0.5979-1.0828-2.2024-1.4866-3.5984-1.4866
	c-1.2773,0-2.9033,0.348-3.6178,1.2852c-4.0355-0.3066-7.4161,2.137-10.4613,4.8135c-0.5059,0.1104-1.1084-0.0811-1.7334-0.3018
	c-0.7852-0.2751-1.6748-0.5111-2.4902-0.2841c-1.5664-1.0997-4.4199-1.504-6.4766-1.504c-0.9443,0-3.9524,0.0985-5.0012,1.2961
	c-1.2677,0.0325-2.2866,0.687-3.2712,1.325c-0.3164,0.2051-0.6309,0.4082-1.001,0.6191c-2.7617,2.0166-6.0488,3.1211-9.2285,4.1895
	c-3.1934,1.0723-6.4951,2.1816-9.3369,4.2178l-0.1016,0.0967c-2.0635,2.6104-4.7754,4.7344-7.3984,6.7891
	c-2.3176,1.8148-4.7024,3.6951-6.5889,5.8741l-0.2869-0.0223l0.0408-1.3987l-0.7461,0.3691
	c-1.5313,0.7578-3.3398,1.377-5.0898,1.9756c-2.5098,0.8586-5.0991,1.749-6.9692,3.08c-0.3783,0.0876-1.0771,0.0269-1.8022-0.0604
	c-0.4951-0.0586-1.0078-0.1201-1.4756-0.1201c-1.2844,0-1.7759,0.5342-1.9385,1.1123c-1.5325,0.1208-3.068,0.3201-4.5566,0.5225
	c-2.2588,0.3066-4.5957,0.624-6.8965,0.624c-0.7197,0-1.4209-0.0313-2.083-0.0938l-0.5996-0.0557l0.0896,0.9851
	c-0.1548,0.0143-0.3186,0.0292-0.4841,0.0442c-0.217,0.0201-0.4241,0.0396-0.6187,0.0582
	c-0.7074-1.1438-1.6301-2.0991-2.5347-3.0162c-0.2113-0.2141-0.4213-0.4271-0.6274-0.6412
	c-0.4165-0.8661-1.2482-1.6044-2.0659-2.3148c-0.6055-0.5283-1.1787-1.0264-1.5498-1.543l-0.0122-0.017
	c-2.0715-3.3153-5.1992-5.7892-8.2261-8.1813c-1.6946-1.3387-3.4465-2.7244-4.9434-4.2139
	c-1.8572-2.5747-4.4143-5.6176-7.8026-6.6907c-0.8407-1.4543-1.9181-2.957-3.5126-3.557c-0.6743-1.1978-0.3785-2.4563-0.0559-3.7875
	c0.1724-0.7095,0.3484-1.4371,0.3875-2.1848l0.7522,0.2727l0.1328-0.5391c0.2754-1.1152,0.6924-2.7842,1.1094-4.4541
	c0.3936-1.5724,0.7852-3.1387,1.0369-4.182c2.2462-0.6547,4.2292-2.4009,5.8959-5.2115c2.5499-1.7441,4.9982-3.6729,5.8833-5.9613
	c12.8197-11.3561,21.2877-29.674,23.2338-50.2584c0.25-1.7119,0.4121-3.499,0.5684-5.2266
	c0.4697-5.1973,0.9551-10.5713,3.9453-14.9951c1.2119-2.4639,1.3359-5.1846,1.4561-7.8164
	c0.0703-1.5313,0.1426-3.1152,0.4072-4.4932c0.1777-0.4287,0.3613-0.8574,0.5449-1.2871c0.8121-1.8981,1.6387-3.8615,2.0551-5.9396
	c2.052-0.9084,3.5349-3.3577,4.8444-5.5438c0.304-0.5071,0.5952-0.9923,0.8806-1.4346c2.801-1.7894,6.2759-4.8087,7.9185-8.0718
	c1.907-0.3043,3.2676-2.2894,4.2505-4.0707c4.2002-3.0879,8.0762-6.7626,11.8245-10.3204c3.3115-3.144,6.7363-6.395,10.4385-9.2871
	c2.2383-2.5981,4.9141-4.855,7.502-7.0376c3.2026-2.7009,6.5073-5.497,9.0848-9.0126c2.6012-0.1443,4.3146-2.7202,5.1444-4.3592
	c4.6128-3.2437,9.6765-6.9933,12.6023-10.3642c1.6858-0.3327,2.9182-1.4146,4.106-2.4695c0.7646-0.6787,1.4863-1.3198,2.3213-1.7734
	l0.0918-0.0645c1.1709-1.0342,2.5977-1.8594,3.9775-2.6577c1.7275-0.9993,3.4991-2.0435,4.8638-3.5176
	c0.1626,0.0232,0.3185,0.0557,0.4976,0.0557c1.7341,0,4.1216-1.1082,4.4351-2.939c2.5297-0.7183,5.606-1.8135,7.9492-3.8962
	c1.9272-0.2249,5.9834-0.9698,6.8899-3.2985c0.332,0.054,0.6683,0.0912,1.01,0.0912c1.7979,0,3.4824-0.7378,5.1113-1.4512
	c0.7024-0.3073,1.3689-0.5931,2.0413-0.8289l0.0808,0.0384l0.1781-0.1328l1.0983-0.3672l-0.332-0.1581
	c0.2751,0.0505,0.5662,0.0853,0.8877,0.0853c1.8047,0,3.9934-0.816,4.7307-2.1476c3.4204-0.006,6.7678-0.8768,10.0046-1.7196
	c2.407-0.6264,4.896-1.2747,7.3802-1.5541c1.0751-0.1112,2.1384-0.2492,3.2008-0.3878c2.2988-0.2988,4.6755-0.6079,7.1886-0.609
	c2.6566,0.2734,5.3695,0.4132,8.0673,0.4132c1.417,0,2.8584-0.0381,4.2842-0.1138l0.0009-0.0001
	c5.1399-0.1962,10.1813,1.0065,15.0568,2.1695c3.1726,0.7567,6.4524,1.5361,9.7415,1.931c2.7515,1.7808,5.4053,2.7817,7.8564,2.9773
	c1.6085,1.7342,4.3711,2.9222,7.1504,3.0617l1.8022,0.8593c2.1525,2.1522,4.6705,3.6146,7.115,4.1388
	c0.4058,0.3272,0.8135,0.6633,1.2271,1.0046c2.3311,1.9275,4.7439,3.9136,7.6431,4.9216c2.2212,2.1641,4.6611,4.3256,7.0229,6.4163
	c1.5872,1.4054,3.2263,2.8591,4.8557,4.3536c0.8169,2.3887,2.3275,4.5076,3.7927,6.5561c1.9502,2.7273,3.9595,5.5487,4.301,9.0054
	c-0.1836,0.332-0.438,0.7852-0.6741,1.2036l-0.3472,0.6212c-1.4604,0.8442-2.9631,1.8908-4.6887,3.2637
	c-0.9709-0.3312-2.3833-0.6554-3.7717-0.6554c-1.3921,0-2.4236,0.3547-3.063,0.9952c-0.8562-0.2642-1.733-0.5706-2.6587-0.8985
	c-2.7012-0.957-5.4941-1.9468-8.25-1.9468c-1.9209,0-3.5771,0.4814-5.0605,1.4722c-0.877,0.2603-1.4844,0.9839-1.6309,1.9531
	c-0.1514,1.0026,0.2556,2.0016,0.949,2.5054c0.254,2.7042,1.1235,7.325,4.0149,9.9904c-0.0078,1.2919,0.7418,2.407,2.0969,3.1204
	c0.2007,1.1709,0.8184,2.1373,1.4324,3.0669c0.2955,0.4473,0.5715,0.876,0.8169,1.3411c-0.2637,3.5336,1.283,7.7698,3.8135,10.4424
	l0.0366,0.2067c0.239,1.3704,0.5459,3.0509,1.8536,3.8904c0.7089,2.0934,1.5687,4.1725,2.4032,6.1843
	c1.6611,4.0037,3.3727,8.1428,3.9109,12.5149c-0.1577,0.2083-0.3438,0.4567-0.5408,0.72c-0.1938,0.2606-0.3776,0.5059-0.5294,0.7065
	l-0.6151,0.1832c-1.9872,0.5746-4.2174,1.2332-5.4314,2.8957c-0.9124,0.0659-1.2523,0.6595-1.2542,1.2244
	c-0.0042,1.0065,0.9961,2.3801,2.0806,2.7468c-0.007,0.7599,0.2847,1.5649,0.8677,2.2796c0.7988,0.9795,1.9473,1.5869,2.9971,1.5869
	c0.0575,0,0.1135-0.0104,0.1705-0.0139l0.9271,1.0383c0.892,2.3701,1.9236,4.7413,2.9238,7.0352
	c0.6924,1.5869,1.3848,3.1738,2.0361,4.7705l0.0469,0.1152l0.0957,0.0801c1.0156,0.8477,0.7803,2.9746,0.5527,5.0313
	c-0.2737,2.4784-0.5565,5.0365,1.3518,5.906c-0.0161,3.1094,0.269,6.236,0.5515,9.262c0.2842,3.0537,0.5791,6.2109,0.5547,9.333
	l-0.0039,0.5039h0.9253c-0.0452,3.9103,0.2546,7.8483,0.5542,11.6621c0.3555,4.5264,0.7227,9.2061,0.4951,13.833l-0.0264,0.5244
	h0.972c-0.0614,2.0844-0.0431,3.8618,0.0627,5.5249c-0.1166,4.5743-0.1149,9.2183-0.1139,13.7095
	c0.001,2.2548-0.0007,4.5138-0.0144,6.7759l-0.8987-0.1343l0.0283,0.6064c0.3135,6.8779-0.8799,13.7686-2.0332,20.4316
	c-0.2495,1.4406-0.496,2.8805-0.7305,4.3217c-0.481,0.0581-0.8994,0.2932-1.2393,0.693c-0.8806,1.0358-1.0714,3.078-0.9407,4.4469
	c-2.4633,0.7872-3.5693,3.4189-4.5369,5.7777c-0.4512,1.1016-0.8779,2.1416-1.4121,2.9775l-0.2617,0.4111l0.4033,0.2725
	c2.6846,1.8135,5.8232,2.127,8.8574,2.4297c1.6914,0.1688,3.4402,0.3445,5.0674,0.7803c0.4319,0.2032,1.1616,0.5416,1.709,0.7949
	l0.1592,0.0736l0.2158,0.8512l0.292,0.0713c3.9551,0.9678,7.4238,3.167,10.7783,5.293c1.5717,0.9971,3.1987,2.0166,4.8706,2.9218
	c-0.0374,0.4619,0.1143,0.804,0.2759,1.0206c0.6445,0.8691,2.1475,0.998,2.9854,0.998c0.24,0,0.4745-0.0118,0.6936-0.0315
	c0.0374,0.1084,0.0854,0.2139,0.157,0.3108c0.6084,0.8213,2.2285,0.9102,2.8975,0.9102c1.6338,0,3.3203-0.4445,3.8779-1.4115
	c0.2471,0.0522,0.4978,0.0873,0.7529,0.0873c1.2744,0,2.4629-0.6475,3.5801-1.2549l0.165-0.1455
	c0.4619-0.6367,0.9463-1.2686,1.4326-1.9043c2.0537-2.6818,4.1678-5.4567,4.865-8.8763l0.5139-0.3229
	c0.4565-0.2998,0.9697-0.637,1.3473-0.8816c0.1669,0.0463,0.339,0.0779,0.5209,0.0779c1.2676,0,2.7432-1.2266,2.7695-2.3027
	c0.0068-0.2754-0.0859-1.1797-1.5596-1.2529l-0.0684-0.0039l-0.0664,0.0156c-0.2939,0.0664-0.5391,0.0996-0.7295,0.0996
	c-0.2363,0-0.2988-0.0518-0.2988-0.0518c-0.1133-0.1621,0.1846-0.9883,0.3271-1.3848c0.0918-0.2542,0.1788-0.5128,0.2554-0.7688
	c0.4158-0.0791,0.8768-0.1393,1.3765-0.197c1.6943-0.1946,3.5867-0.4276,4.4656-1.7335c0.7904-0.0128,2.0533-0.0381,2.718-0.0565
	l0.3486-0.0098l0.1113-0.3301c0.2969-0.8789,0.2754-1.5361-0.0654-2.0107c-0.4482-0.625-1.2949-0.7051-1.9824-0.7051
	c-0.334,0-0.6885,0.0225-1.0361,0.0439c-0.3174,0.0195-0.6289,0.04-0.9141,0.04c-0.0669,0-0.1329-0.0015-0.2048-0.0044
	c-0.1909-0.1868-0.384-0.3693-0.5745-0.5396c-0.8325-0.7438-1.4404-1.306-1.3176-2.5214c0.427-0.1561,0.7627-0.4126,0.9934-0.7745
	c0.3462-0.5425,0.4302-1.2872,0.29-2.2048l0.8262-0.01l-0.0957-0.5752c-0.1582-0.9561-0.0586-1.6523,0.2969-2.0713
	c0.3799-0.4482,1.1211-0.666,2.2656-0.666c0.9063,0,1.9727,0.1348,3.0039,0.2646c1.0703,0.1348,2.1768,0.2734,3.1602,0.2734
	c0.928,0,1.6481-0.1335,2.2131-0.3932l1.3279,0.2076l-0.0625-0.6426c-0.0071-0.0721-0.0251-0.1387-0.0356-0.2092l0.3257-0.1755
	l-0.3633-0.0449c-0.6116-3.0005-4.3296-4.3767-7.083-5.3906c-0.382-0.1401-0.7366-0.2739-1.0803-0.4073
	c-0.2935-0.7816-0.5735-1.5535-0.8466-2.3296c0.854-0.7504,1.1237-2.0178,1.4025-3.3558c0.2529-1.2107,0.5282-2.446,1.2386-3.2855
	c1.5071-0.0382,2.9813-0.1082,4.4674-0.1823c1.5234-0.0752,3.0615-0.1514,4.6689-0.1904l0.0002-0.0017l1.4802,0.2585l-0.165-0.7266
	c-0.7021-3.1074-4.4658-4.3779-7.2139-5.3047l-0.0221-0.0057l-0.4877-1.1056c-0.1323-0.3025-0.2625-0.5963-0.3933-0.8934
	l0.6931-0.0568l0.0342-0.4229c0.0967-1.168,0.5879-2.2295,1.1084-3.3545c0.5852-1.2639,1.1833-2.5668,1.1829-4.0356l6.7285-0.3976
	l1.3806,0.317l-0.0088-0.6367c-0.0264-1.9805-1.624-2.6777-3.0332-3.293c-0.9243-0.4041-1.7847-0.8022-2.307-1.4874
	c0.4457-1.0427,0.9052-2.0786,1.3666-3.1112c0.6411-1.4325,1.2959-2.9111,1.8995-4.3933l0.2518,0.0623l-0.0099-0.142l1.7168,0.026
	c0.1766,0.5383,0.3518,1.0789,0.5265,1.6248c1.1954,3.7284,2.4347,7.5808,4.7021,10.8253l0.1074,0.6151
	c0.4539,2.6554,1.0254,5.9298,2.7548,7.6281c0.0565,0.3812,0.0999,0.7937,0.1427,1.2255c0.1821,1.8301,0.4011,3.8821,1.7959,4.9545
	c2.2104,11.0891,4.2152,20.4127,6.126,28.4908l0,0c0.1133,0.5645,0.1641,1.3076,0.2178,2.0938
	c0.1427,2.1011,0.3197,4.4456,1.7795,5.2312c0.3992,1.7655,1.4833,2.0549,2.1169,2.0549c0.001,0,0.001,0,0.001,0
	c1.0166,0,2.2471-0.6914,3.292-1.8486c0.9288-1.0297,1.4764-2.1729,1.5203-3.1217c0.4958-0.2299,0.8491-0.6173,1.0188-1.1547
	c0.1462-0.4642,0.1584-1.0264,0.0459-1.6842l0.8896,0.026l-0.0117-0.5264c-0.2559-11.5586-1.6094-23.9785-4.2578-39.085
	l-0.0947-0.542l-0.8945,0.2462c-0.0867-3.7191-1.1138-7.3534-2.1201-10.8732c-0.7168-2.5039-1.457-5.0938-1.8369-7.668
	l-0.0527-0.3506l-0.8596-0.1656c-0.0328-0.3466,0.0321-0.9399,0.0823-1.3705c0.1172-1.0068,0.209-1.8027-0.1816-2.2422
	c-0.1444-0.1617-0.3406-0.2429-0.5593-0.2549c-0.3003-1.6246-0.8291-3.1759-1.3538-4.6768
	c-0.156-0.4474-0.3118-0.8931-0.4615-1.3412c-0.2479-2.6234-1.1156-5.1101-2.3885-6.8667c-0.1143-1.2559-0.4333-2.4424-0.7485-3.589
	l-0.1211-0.4434c-0.0996-0.3594,0.0576-0.8359,0.21-1.2969c0.2041-0.6162,0.415-1.2529,0.1123-1.835
	c-0.1434-0.2762-0.3818-0.4906-0.7188-0.6517l0.0585-0.573c2.152-1.6049,2.6656-5.0797,2.9911-7.4535
	c0.967-1.8474,1.3679-3.9916,1.2026-6.3782c3.7223-0.0106,5.6465,3.1113,7.0021,6.2672c-0.0498,0.0587-0.101,0.119-0.1537,0.1808
	c-0.1011,0.1185-0.1953,0.2299-0.2749,0.326l-0.6187,0.3126c-1.8057,0.9209-3.5117,1.791-5.4434,2.0703l-0.3604,0.0527
	l-0.0615,0.3574c-0.126,0.7373-0.001,1.3359,0.374,1.7803c0.665,0.79,1.9473,0.8984,3.2344,0.8984
	c0.3877,0,0.79-0.0107,1.1934-0.0215c0.3975-0.0117,0.7959-0.0225,1.1846-0.0225c1.0293,0,2.2568,0.0742,2.708,0.6436
	c0.1982,0.5732,0.4688,1.1699,0.7305,1.7471c0.5879,1.2969,1.1963,2.6387,0.8486,3.4668c-0.1525,0.3628-0.4974,0.6382-1.0527,0.8445
	c-1.7783,0.2966-3.4631,0.9327-5.0928,1.551c-0.6191,0.2354-1.2373,0.4697-1.8584,0.6846l-0.415,0.1445l0.0898,0.4297
	c0.4141,1.9902,2.1094,2.2207,3.3477,2.2207c0.4199,0,0.8496-0.0283,1.2646-0.0557c0.2498-0.0167,0.4858-0.0278,0.7188-0.0364
	c0.6338,0.7076,1.5292,1.0715,2.7559,1.0715c0.5244,0,1.0426-0.0594,1.4993-0.1172c2.2971,0.2275,3.0325,2.6735,3.7419,5.042
	c0.2205,0.7377,0.4419,1.4248,0.6968,2.0614c-0.755,0.4126-1.5361,0.8158-2.3315,1.2218c-2.7197,1.3849-5.5201,2.8229-7.5364,4.9354
	l-0.1218-0.0311l-0.1458,0.3053l-0.3284,0.3623l-0.2446,0.0541l0.1508,0.0494l-0.0853,0.0941l0.2168,0.0553
	c-0.2041,0.4355-0.4385,0.9399-0.5742,1.2386l-0.2715,0.5977l0.6484,0.1035c0.9629,0.1523,1.9834,0.2266,3.1191,0.2266
	c1.709,0,3.4482-0.1709,5.1309-0.3359c1.6592-0.1631,3.374-0.332,5.0342-0.332c1.2083,0,2.2844,0.0939,3.2864,0.2756
	c0.0479,0.172,0.0957,0.3409,0.1443,0.5212c0.4446,1.6541,0.9841,3.6617,2.5945,4.5782c-0.812,0.7682-1.6207,1.5646-2.5305,2.4744
	c-1.6426,0.2821-3.1586,1.5623-4.0817,2.7401c-0.8026,0.4681-1.7133,0.8595-2.6796,1.2717c-2.1836,0.9287-4.4404,1.8906-5.5,3.8691
	l-0.4414,0.8242l1.4227-0.1545l0.1964,0.8196l0.3086,0.0664c3.166,0.6738,6.4492,1.002,10.0381,1.002
	c3.1912,0,6.6699-0.2747,10.5955-0.8229c0.3057,1.4807,1.3843,1.7301,2.0491,1.7301c0.0022,0,0.0046-0.0005,0.0067-0.0005
	l0.0206,0.0962c0.3169,1.3986,0.5793,2.6102-0.4177,3.5406c-1.66,0.0864-3.116,0.896-4.5227,1.6879
	c-0.6563,0.3691-1.2764,0.7178-1.8174,0.96c-2.1641,0.4951-2.54,1.2891-2.4746,1.8672c0.0801,0.7109,0.9189,1.2266,1.9941,1.2266
	c0.3757,0,0.7451-0.0848,1.1006-0.2092c1.5035,1.662,4.2527,1.8274,6.9717,1.8274l1.2402-0.0029c0.709,0,1.458,0.0078,2.126,0.0664
	l0.1631,0.0146l0.1396-0.085c0.3525-0.2129,0.666-0.3164,0.9609-0.3164c0.7461,0,1.3818,0.7168,2.0547,1.4766
	c0.7224,0.8147,1.5348,1.7203,2.6678,1.8965c-0.3868,1.2646-1.421,2.0525-2.5106,2.8799c-0.6689,0.5085-1.3519,1.0398-1.9059,1.692
	c-0.6556,0.0248-1.3629,0.5491-1.8724,1.434c-0.4375,0.7588-0.751,1.8389-0.3145,2.5947c0.1494,0.2578,0.5215,0.6895,1.3457,0.6895
	c1.0332,0,2.5635-0.6885,4.5508-2.0449h5.6293c0.149,0.1476,0.3219,0.3171,0.5045,0.4961l0.62,0.6155l0.5085,0.5579
	c-0.2111,0.1658-0.421,0.3333-0.6334,0.4966c-0.7705,0.5898-1.5664,1.2002-2.2549,1.9189l-0.7617,0.793l1.0986,0.0518
	c1.1182,0.0537,2.2646,0.0811,3.4082,0.0811c0.5466,0,1.0959-0.0071,1.6453-0.0194l0.9189,0.6125l0.0715,0.0631
	c0.8896,0.7822,1.7295,1.6797,2.541,2.5488c1.7212,1.8422,3.5046,3.7417,5.9585,4.796c1.1108,1.5322,2.8606,2.306,4.5591,3.0497
	c0.3313,0.1449,0.646,0.2994,0.9685,0.4489l-0.2556,0.1996l1.0464,0.1703l0.2163,0.1119l0.0911-0.0713
	c0.3984,0.0542,0.8057,0.0879,1.2175,0.0879c2.1338,0,4.8713-0.8029,6.2876-3.0339c3.8037-2.0858,6.0537-6.3301,8.2261-10.4426
	c0.9004-1.7053,1.7527-3.3154,2.6899-4.7274c0.6206-0.5569,2.2603-2.2277,1.9429-4.0109c2.3459-2.1436,3.78-5.2976,4.8667-8.1554
	c1.302-0.9091,1.3-2.4368,1.241-3.7281l0.7195-0.1907l0.0762-0.2773c2.2188-8.1143,4.3926-17.5664,2.0938-27.0605l-0.082-0.3389
	l-0.8828-0.1016c-0.1406-2.7706-1.5354-5.7792-2.9763-7.5271c0.2849-1.24,0.2571-2.0825-0.1125-2.6018
	c-0.1548-0.2164-0.3787-0.3455-0.6289-0.4314c-0.8848-2.1084-1.3323-4.4089-1.3142-6.8502c0.21-3.0078,0.156-6.0712,0.1033-9.0338
	c-0.0303-1.668-0.0605-3.3926-0.043-5.0723l0.0068-0.6348l-1.0586,0.2445c-0.0557-2.9712-0.408-6.2052-2.1294-8.5625
	c-0.3875-1.3268-0.8481-2.6338-1.2954-3.8978l-0.2935-0.8363c0.4541-0.2506,1.0063-0.5198,1.5884-0.8024
	c2.5408-1.2332,5.6816-2.7642,5.8467-5.0979c0.2427-0.4297,0.6252-1.0978,0.9355-1.6394l0.2422-0.4231
	c2.5898-1.4517,3.2712-7.3353,2.9229-10.4042c0.1104-0.5042,0.2839-1.0108,0.4697-1.5477c0.4524-1.3009,0.9121-2.645,0.4736-4.0624
	c0.6272-4.0137,0.4072-8.1295,0.1924-12.1104c-0.0483-0.8979-0.0913-1.7896-0.1299-2.6799
	c0.0293,0.0018,0.0623,0.0119,0.0908,0.0119c0.3135,0,0.5859-0.1123,0.7871-0.3262c0.4814-0.5107,0.4268-1.438,0.3691-2.4194
	c-0.0303-0.5131-0.0623-1.1318,0.0315-1.4236c1.5498-1.2972,2.0813-3.5307,2.5437-5.5154c0.1318-0.5667,0.2617-1.1177,0.4106-1.6331
	c1.7246-1.7285,2.4346-5.5369,2.9517-8.3464l0.0969-0.5223c1.678-1.4178,1.8398-4.2227,1.9597-6.5021
	c0.0146-0.2817,0.0293-0.5537,0.0459-0.811l0.04-0.6216L1823.9336,973.4756z M1714.2437,1045.1367
	c0.0835-0.5433,0.084-1.1821,0.0767-1.8662c-0.0098-0.9561-0.0225-2.1465,0.3047-2.4775c0.0791-0.0781,0.1843-0.2916,1.1525,0.3051
	c0.2474,1.365,0.4807,2.8557-0.1368,3.6373c-0.271,0.3435-0.7184,0.5487-1.3396,0.6382L1714.2437,1045.1367z M1426.6016,781.9939
	c-0.0145-0.0049-0.0288-0.0097-0.0435-0.0146c0.0112-0.0131,0.0222-0.0264,0.0334-0.0394L1426.6016,781.9939z"/>
</svg>
